<?xml version="1.0" encoding="utf-8"?>
<!-- Generator: Adobe Illustrator 21.0.0, SVG Export Plug-In . SVG Version: 6.00 Build 0)  -->
<svg version="1.1" id="Layer_1" xmlns="http://www.w3.org/2000/svg" xmlns:xlink="http://www.w3.org/1999/xlink" x="0px" y="0px"
	 viewBox="0 0 80 50" style="enable-background:new 0 0 80 50;" xml:space="preserve">
<style type="text/css">
	.st0{fill:#025B8E;}
</style>
<g>
	<g>
		<path class="st0" d="M43.7,42.6L42.5,43l0.6-1.1c1.3-2.4,2.2-5,2.9-7.6l0.1-0.3l0.3-0.1c1.2-0.3,2.3-0.7,3.4-1.1
			c-0.5-0.5-1-1-1.4-1.6c-0.4,0.1-0.8,0.3-1.2,0.4l-0.7,0.2l0.1-0.7c0.1-0.9,0.3-1.9,0.3-2.9c0.1-0.9,0.1-1.8,0.1-2.7
			c0-0.9,0-1.8-0.1-2.7c-0.1-1-0.2-1.9-0.3-2.9l-0.1-0.7l0.7,0.2c0.4,0.1,0.8,0.2,1.2,0.4c0.4-0.6,0.9-1.1,1.4-1.6
			c-1.1-0.4-2.3-0.8-3.4-1.1L46.1,17H46c-0.7-2.6-1.7-5.2-2.9-7.6l-0.6-1.1l1.1,0.4c3.9,1.4,7.3,4.1,9.5,7.7c0.6-0.2,1.3-0.4,2-0.5
			c-2.9-5.1-7.9-8.7-13.8-9.8c-1.2-0.2-2.3-0.4-3.5-0.4c0,0-0.1-0.1-0.2-0.1l0,0c-1.2,0-2.4,0.2-3.6,0.5C26.1,7.5,19.8,14,18.3,21.9
			C18,23.1,18,24.4,18,25.6v0.1c0,1.2,0.1,2.5,0.3,3.7c1.5,7.9,7.8,14.3,15.8,15.8c1.2,0.2,2.4,0.3,3.6,0.4l0,0h0.1h0.1
			c1.2,0,2.3-0.1,3.5-0.3c5.9-1.1,10.9-4.7,13.8-9.8c-0.7-0.1-1.3-0.3-2-0.5C51,38.5,47.6,41.3,43.7,42.6z M44.5,18.9l0.1,0.3
			c0.4,2.1,0.6,4.3,0.6,6.5S45,30,44.6,32.2l-0.1,0.3l-0.3,0.1c-2.1,0.4-4.3,0.6-6.5,0.6s-4.3-0.2-6.5-0.6l-0.3-0.1l-0.1-0.3
			c-0.4-2.1-0.6-4.3-0.6-6.5s0.2-4.3,0.6-6.5l0.1-0.3l0.3-0.1c2.1-0.4,4.3-0.6,6.5-0.6s4.3,0.2,6.5,0.6L44.5,18.9z M35.2,8.1
			l0.1-0.2h0.2c0.8-0.1,1.5-0.1,2.2-0.1c0.6,0,1.3,0,2,0.1h0.2L40.1,8c1.6,2.5,2.8,5.2,3.6,8.1l0.2,0.7l-0.7-0.1
			c-1.8-0.3-3.7-0.4-5.5-0.4c-1.9,0-3.7,0.1-5.5,0.4l-0.7,0.1l0.2-0.7C32.5,13.3,33.7,10.6,35.2,8.1z M20.9,19.6
			c1.8-5,5.7-9,10.8-10.8l1.1-0.4l-0.6,1.1C31,11.8,30,14.4,29.4,17l-0.1,0.3H29c-2.6,0.7-5.1,1.6-7.5,2.8l-1.1,0.5L20.9,19.6z
			 M20,28v-0.2c-0.1-0.7-0.1-1.5-0.1-2.2s0-1.4,0.1-2.2v-0.2l0.2-0.1c2.5-1.5,5.1-2.7,7.9-3.6l0.7-0.2L28.7,20
			c-0.3,1.8-0.4,3.7-0.4,5.5c0,1.9,0.1,3.7,0.4,5.5l0.1,0.7l-0.7-0.2c-2.8-0.8-5.4-2-7.9-3.6L20,28z M31.6,42.5
			c-5-1.8-8.9-5.8-10.8-10.8l-0.4-1.1l1.1,0.5c2.4,1.2,4.9,2.2,7.5,2.8l0.3,0.1l0.1,0.3c0.7,2.6,1.6,5.2,2.9,7.5l0.6,1.1L31.6,42.5z
			 M40.1,43.3L40,43.5h-0.2c-0.7,0.1-1.3,0.1-2,0.1s-1.4,0-2.2-0.1h-0.2l-0.1-0.2c-1.6-2.5-2.8-5.2-3.6-8l-0.2-0.7l0.7,0.1
			c1.8,0.3,3.7,0.4,5.5,0.4c1.9,0,3.7-0.1,5.5-0.4l0.7-0.1l-0.2,0.7C42.9,38.1,41.7,40.8,40.1,43.3z"/>
		<path class="st0" d="M56.5,34.4c-4.8,0-8.7-3.9-8.7-8.7s3.9-8.7,8.7-8.7s8.7,3.9,8.7,8.7S61.3,34.4,56.5,34.4z M56.5,19.1
			c-3.6,0-6.6,3-6.6,6.6s3,6.6,6.6,6.6s6.6-3,6.6-6.6S60.2,19.1,56.5,19.1z"/>
		<path class="st0" d="M68.3,38.7c-0.3,0-0.6-0.1-0.8-0.3L63,33.9c-0.5-0.5-0.5-1.2,0-1.7s1.2-0.5,1.7,0l4.5,4.5
			c0.5,0.5,0.5,1.2,0,1.7C68.9,38.6,68.6,38.7,68.3,38.7z"/>
	</g>
</g>
</svg>
