<?xml version="1.0" encoding="utf-8"?>
<!-- Generator: Adobe Illustrator 21.0.0, SVG Export Plug-In . SVG Version: 6.00 Build 0)  -->
<svg version="1.1" id="Layer_1" xmlns="http://www.w3.org/2000/svg" xmlns:xlink="http://www.w3.org/1999/xlink" x="0px" y="0px"
	 viewBox="0 0 80 50" style="enable-background:new 0 0 80 50;" xml:space="preserve">
<style type="text/css">
	.st0{fill:#025B8E;}
</style>
<path class="st0" d="M24.8,47.2c-0.2,0-0.3-0.1-0.5-0.1c-2.7-0.7-4-3.8-2.6-6.1c2.5-4.1,5.1-8.2,7.6-12.4c0.1-0.2,0.3-0.2,0.5-0.2
	c1.8,0.4,3.5,0.9,5.3,1.3c0.1,0,0.2,0,0.4,0c-3.1-2.6-6.1-5.1-9.2-7.7c2.8-3.5,5.6-6.9,8.4-10.4c3.9,3.3,7.9,6.6,11.8,9.9
	c-2.8,3.5-5.6,6.9-8.5,10.4c0.4,0.4,0.9,0.7,1.3,1.1c2.8-3.5,5.6-6.9,8.5-10.4c2,1.7,4,3.4,6.1,5.1c-2.8,3.5-5.6,6.9-8.4,10.4
	c-1.6-1.3-3.2-2.6-4.7-3.9c-0.1,0.1-0.2,0.2-0.3,0.3c-4,3.8-7.9,7.5-11.9,11.3c-0.8,0.8-1.7,1.4-2.8,1.6
	C25.5,47.2,25.2,47.2,24.8,47.2z"/>
<path class="st0" d="M49.4,3.4c5,0,9.2,3.7,9.8,8.7c0.6,4.3-1.6,8.4-5.4,10.4c-0.3,0.2-0.5,0.1-0.8-0.1c-4.4-3.7-8.7-7.3-13.1-10.9
	c-0.2-0.2-0.3-0.4-0.2-0.7C40.9,6.5,45,3.4,49.4,3.4z"/>
</svg>
