<?xml version="1.0" encoding="utf-8"?>
<!-- Generator: Adobe Illustrator 21.0.0, SVG Export Plug-In . SVG Version: 6.00 Build 0)  -->
<svg version="1.1" id="Layer_1" xmlns="http://www.w3.org/2000/svg" xmlns:xlink="http://www.w3.org/1999/xlink" x="0px" y="0px"
	 viewBox="0 0 80 50" style="enable-background:new 0 0 80 50;" xml:space="preserve">
<style type="text/css">
	.st0{fill:#025B8E;}
</style>
<path class="st0" d="M38.3,3.3c1.8-0.1,3.4,0.4,4.9,1.3C44.3,5.1,45,6,45.4,7.2c0.2,0.5,0.5,1,0.6,1.6c0.3,1.3,0.2,2.7-0.2,4
	c0,0.1,0,0.3,0,0.4c0,0.2,0.1,0.5,0.1,0.7c-0.2,0.9-0.4,1.8-0.8,2.6c-0.7,1.3-1.2,2.8-2.3,3.9c-0.1,0.1-0.1,0.2-0.1,0.4
	c-0.1,0.3-0.1,0.5-0.2,0.8c-0.7,1.7-1.8,3-3.5,3.9c-0.5,0.3-1,0.3-1.5,0c-1.8-1-2.9-2.4-3.6-4.3c0-0.1,0-0.1,0-0.2
	c0.1-0.4-0.1-0.7-0.3-1c-0.7-0.8-1.2-1.7-1.5-2.7c-0.1-0.1-0.2-0.3-0.2-0.4c-0.1-0.2-0.3-0.4-0.4-0.6c-0.2-0.7-0.5-1.5-0.7-2.2
	c-0.1-0.3-0.1-0.7,0.1-1c0-0.1,0-0.2,0-0.3c-0.4-1.5-0.6-3-0.1-4.5C31,7.6,31.3,7,31.6,6.4c0.4-0.7,0.9-1.3,1.6-1.8
	C34.8,3.7,36.5,3.1,38.3,3.3z"/>
<path class="st0" d="M49.9,40.1c0-2.5,2.1-4.5,4.6-4.5c0.3,0,0.4-0.1,0.5-0.3c3.5-7.2,7-14.5,10.5-21.7c0.4-0.8,1-1.1,1.8-1
	c0.7,0.1,1.3,0.7,1.3,1.5c0,0.3-0.1,0.7-0.2,1c-2.3,4.8-4.6,9.6-7,14.4c-1.2,2.4-2.3,4.9-3.5,7.3c-0.1,0.2-0.1,0.3,0,0.5
	c1.3,1.5,1.4,3.7,0.3,5.4c-1.1,1.6-3.2,2.4-5.1,1.8C51.2,43.9,49.9,42.1,49.9,40.1z"/>
<path class="st0" d="M39.2,40.6c0-1.7,0-3.5,0-5.2c0-0.2,0-0.4,0.1-0.5c0.1-0.2,0.3-0.4,0.5-0.4c3-0.3,6-0.6,9-0.9
	c0.1,0,0.2,0,0.3,0c0.5-0.1,0.8,0.2,0.8,0.7c0,0.5,0,1.1,0,1.6c0,0.1-0.1,0.2-0.1,0.3c-1.9,2.4-1.9,5.4,0,7.8
	c0.1,0.1,0.1,0.2,0.1,0.4c0,0.2,0,0.4,0,0.7c0,0.5-0.3,0.7-0.7,0.7c-2.9,0.3-5.8,0.6-8.7,0.8c-0.1,0-0.3,0-0.4,0
	c-0.5,0.1-0.8-0.2-0.8-0.7c0-0.3,0-0.6,0-0.9C39.2,43.6,39.2,42.1,39.2,40.6z"/>
<path class="st0" d="M37.5,40.6c0,1.7,0,3.5,0,5.2c0,0.2,0,0.3-0.1,0.5c-0.1,0.3-0.3,0.4-0.6,0.4c-3.1-0.3-6.2-0.6-9.3-0.9
	c-0.4,0-0.6-0.2-0.7-0.6c0-0.3,0-0.6,0-0.9c0-0.1,0.1-0.2,0.1-0.3c1.9-2.3,1.9-5.4,0-7.8c-0.1-0.1-0.1-0.3-0.1-0.4c0-0.5,0-1,0-1.5
	c0-0.6,0.3-0.8,0.9-0.8c2,0.2,4,0.4,6,0.6c1.1,0.1,2.1,0.2,3.2,0.3c0.3,0,0.5,0.3,0.5,0.5c0,0.1,0,0.2,0,0.4
	C37.5,37.2,37.5,38.9,37.5,40.6z"/>
<path class="st0" d="M55.4,34.1c-1.4-0.2-2.7,0-3.9,0.7c0-0.4-0.1-0.7-0.1-1.1c-0.3-1.2-1.3-1.8-2.4-1.7c-2.8,0.3-5.5,0.5-8.3,0.8
	c-0.1,0-0.2,0-0.3,0c-0.1-0.6-0.2-1.2-0.3-1.8c-0.1-0.5-0.3-1-0.3-1.5c0-0.5,0.3-0.9,0.5-1.4c0.1-0.2,0.1-0.4,0.2-0.6
	c0.4,0.4,0.7,0.8,1,1.3c0.3,0.4,0.6,0.8,1,1.3c0.4-2.5,0.9-5,1.3-7.4c1.7,1.6,4,2.3,6.2,3.1c1.3,0.5,2.4,1.2,3.1,2.4
	c1,1.8,1.8,3.7,2.2,5.7C55.4,33.9,55.4,33.9,55.4,34.1C55.4,34,55.4,34,55.4,34.1z"/>
<path class="st0" d="M32.9,22.6c0.4,2.5,0.9,5,1.3,7.5c0.7-0.9,1.3-1.7,1.9-2.6c0.3,0.7,0.6,1.2,0.8,1.8c0,0.1,0,0.1,0,0.2
	c-0.2,1.1-0.4,2.2-0.7,3.3c-0.5,0-1-0.1-1.6-0.1c-2.2-0.2-4.5-0.4-6.7-0.6c-0.3,0-0.6-0.1-0.8,0c-1.1,0.2-1.9,1.1-1.9,2.2
	c0,0.2,0,0.3,0,0.6c-1.3-0.7-2.5-0.9-3.9-0.7c0-0.1,0-0.2,0-0.3c0.4-2,1.2-3.9,2.2-5.7c0.7-1.2,1.8-1.9,3.1-2.4c1.3-0.5,2.7-1,4-1.6
	C31.5,23.7,32.3,23.3,32.9,22.6z"/>
<path class="st0" d="M22.2,35.7c2.5,0,4.5,2,4.5,4.5c0,2.5-2,4.5-4.5,4.5c-2.5,0-4.5-2-4.5-4.5C17.7,37.7,19.7,35.7,22.2,35.7z"/>
</svg>
