<?xml version="1.0" encoding="utf-8"?>
<!-- Generator: Adobe Illustrator 21.0.0, SVG Export Plug-In . SVG Version: 6.00 Build 0)  -->
<svg version="1.1" id="Layer_1" xmlns="http://www.w3.org/2000/svg" xmlns:xlink="http://www.w3.org/1999/xlink" x="0px" y="0px"
	 viewBox="0 0 80 50" style="enable-background:new 0 0 80 50;" xml:space="preserve">
<style type="text/css">
	.st0{fill:#025B8E;}
</style>
<path class="st0" d="M50.7,49c0,0,0.8-4.5,4.4-7.4s8.2-6.1,8.8-7.5c0.3-0.7-0.9-4.9-0.8-9c0.1-5.1,1.3-10.4,1.3-14.3
	c0,0-3.2-0.2-4,4.2s-2.8,11.2-2.8,11.2s1.8,2.1,1.6,2.9s-2.5,4.3-5.2,6.7c0,0-1.5,0.2-0.9-0.9s2.4-2.1,4.8-5.7c0,0,0-1.1-1.1-2.2
	c0,0-7.3,3.1-10.8,7.5s-1.7,6.8-2.8,14.7h7.5V49z"/>
<path class="st0" d="M29.2,49c0,0-0.8-4.5-4.4-7.4S16.6,35.5,16,34c-0.3-0.7,0.9-4.9,0.8-9c-0.1-5.1-1.3-10.4-1.3-14.3
	c0,0,3.2-0.2,4,4.2s2.8,11.2,2.8,11.2s-1.8,2.1-1.6,2.9s2.5,4.3,5.2,6.7c0,0,1.5,0.2,0.9-0.9c-0.6-1.1-2.4-2.1-4.8-5.7
	c0,0,0-1.1,1.1-2.2c0,0,7.3,3.1,10.8,7.5s1.7,6.8,2.8,14.7L29.2,49L29.2,49z"/>
<path class="st0" d="M46.3,12.7H43V9.4c0-0.9-0.7-1.7-1.7-1.7h-3c-0.9,0-1.7,0.7-1.7,1.7v3.3h-3.3c-0.9,0-1.7,0.7-1.7,1.7v3
	c0,0.9,0.7,1.7,1.7,1.7h3.3v3.3c0,0.9,0.7,1.7,1.7,1.7h3c0.9,0,1.7-0.7,1.7-1.7V19h3.3c0.9,0,1.7-0.7,1.7-1.7v-3
	C48,13.4,47.3,12.7,46.3,12.7z"/>
<path class="st0" d="M39.8,30.8c-8.2,0-14.9-6.7-14.9-14.9S31.6,1,39.8,1s14.9,6.7,14.9,14.9S48,30.8,39.8,30.8z M39.8,2.8
	c-7.2,0-13.1,5.9-13.1,13.1S32.6,29,39.8,29C47.1,29,53,23.1,53,15.9S47.1,2.8,39.8,2.8z"/>
</svg>
