<?xml version="1.0" encoding="utf-8"?>
<!-- Generator: Adobe Illustrator 21.0.0, SVG Export Plug-In . SVG Version: 6.00 Build 0)  -->
<svg version="1.1" id="Layer_1" xmlns="http://www.w3.org/2000/svg" xmlns:xlink="http://www.w3.org/1999/xlink" x="0px" y="0px"
	 viewBox="0 0 80 50" style="enable-background:new 0 0 80 50;" xml:space="preserve">
<style type="text/css">
	.st0{fill:#025B8E;}
</style>
<path class="st0" d="M49.2,31.3c-0.4-2.2-1.4-5.2-3.2-7.9c-3.6-5.2-7-9.7-8.1-12.6s-0.7-3.6-1.6-3.6c-0.9,0-0.9,1.7-1.4,3.2
	c-0.6,1.5-1.5,3.7-5.4,9c-3.9,5.2-6.7,10.4-6.7,14.5c0,0.1,0,0.1,0,0.2c0,0.2,0,0.5,0,0.7c0,7.4,6,13.4,13.4,13.4s13.4-6,13.4-13.4
	C49.6,33.5,49.5,32.4,49.2,31.3z M29.6,24.6c1,0,1.8,0.8,1.8,1.8s-0.8,1.8-1.8,1.8s-1.8-0.8-1.8-1.8C27.8,25.4,28.6,24.6,29.6,24.6z
	 M31.5,42.1c-0.3,0.4-0.8,0.6-1.3,0.6c-0.4,0-0.8-0.1-1.1-0.4C24.2,38,26,31.8,26,31.6c0.3-0.9,1.2-1.4,2.1-1.1s1.4,1.2,1.1,2.1
	c-0.1,0.2-1.2,4.4,2.1,7.3C32,40.4,32.1,41.4,31.5,42.1z"/>
<path class="st0" d="M58,12.9c-0.2-0.9-0.6-2.1-1.3-3.2c-1.4-2.1-2.8-3.9-3.3-5.1c-0.4-1.2-0.3-1.5-0.7-1.5s-0.3,0.7-0.6,1.3
	C52,5,51.6,5.9,50,8s-2.7,4.2-2.7,5.9c0,0,0,0,0,0.1s0,0.2,0,0.3c0,3,2.4,5.4,5.4,5.4s5.4-2.4,5.4-5.4C58.2,13.8,58.2,13.4,58,12.9z
	 M50.1,10.2c0.4,0,0.7,0.3,0.7,0.7s-0.3,0.7-0.7,0.7s-0.7-0.3-0.7-0.7C49.4,10.5,49.7,10.2,50.1,10.2z M50.9,17.3
	c-0.1,0.2-0.3,0.2-0.5,0.2s-0.3-0.1-0.4-0.2c-2-1.7-1.3-4.2-1.3-4.3c0.1-0.4,0.5-0.6,0.8-0.4c0.4,0.1,0.6,0.5,0.5,0.8
	c0,0.1-0.5,1.8,0.9,2.9C51.1,16.6,51.1,17,50.9,17.3z"/>
</svg>
