<?xml version="1.0" encoding="utf-8"?>
<!-- Generator: Adobe Illustrator 21.0.0, SVG Export Plug-In . SVG Version: 6.00 Build 0)  -->
<svg version="1.1" id="Layer_1" xmlns="http://www.w3.org/2000/svg" xmlns:xlink="http://www.w3.org/1999/xlink" x="0px" y="0px"
	 viewBox="0 0 80 50" style="enable-background:new 0 0 80 50;" xml:space="preserve">
<style type="text/css">
	.st0{fill:#025B8E;}
</style>
<path class="st0" d="M65.2,33.3v-1.7c0-10.8-7-20.4-17.2-23.8l0.7-4.6H31.4l0.7,4.6c-10.2,3.4-17.2,13-17.2,23.8v1.7h-3.3v7.8
	c8.8,3.6,19.2,5.6,28.5,5.6c9.3,0,19.8-2,28.5-5.6v-7.8H65.2z M44.8,6.6l-2.9,20h-3.8l-2.9-20H44.8z M18.2,31.7
	c0-6.6,3.1-12.8,8-16.8l2.1,13.7l3.3-0.5l-2.3-15.3c1-0.6,2.1-1.1,3.3-1.5L35.2,30h9.6l2.7-18.7c1.1,0.4,2.2,0.9,3.3,1.5l-2.3,15.3
	l3.3,0.5l2.1-13.7c5,4,8,10.2,8,16.8v1.7H18.2V31.7z M65.2,38.9C62,40,51.8,43.4,40,43.4c-11.8,0-22-3.3-25.2-4.5v-2.2h50.3V38.9z"
	/>
</svg>
