<?xml version="1.0" encoding="utf-8"?>
<!-- Generator: Adobe Illustrator 21.0.0, SVG Export Plug-In . SVG Version: 6.00 Build 0)  -->
<svg version="1.1" id="Layer_1" xmlns="http://www.w3.org/2000/svg" xmlns:xlink="http://www.w3.org/1999/xlink" x="0px" y="0px"
	 viewBox="0 0 80 50" style="enable-background:new 0 0 80 50;" xml:space="preserve">
<style type="text/css">
	.st0{fill:#025B8E;}
</style>
<path class="st0" d="M39.5,7.2c10.1,0,18.3,8.2,18.3,18.3s-8.2,18.3-18.3,18.3c-3.7,0-7.2-1.1-10.2-3.1l-0.7-0.5l-0.8,0.3l-5.3,1.7
	l1.7-5.5l0.2-0.8L24,35.2c-1.8-2.9-2.8-6.3-2.8-9.7C21.2,15.4,29.4,7.2,39.5,7.2 M39.5,5.5c-11,0-20,9-20,20c0,3.9,1.1,7.5,3.1,10.6
	L20.4,43c-0.2,0.6,0.3,1.3,0.9,1.3c0.1,0,0.2,0,0.3,0l6.7-2.2c3.2,2.2,7.1,3.4,11.2,3.4c11,0,20-9,20-20S50.5,5.5,39.5,5.5L39.5,5.5
	z"/>
<circle class="st0" cx="39.5" cy="25.5" r="2.3"/>
<circle class="st0" cx="30.4" cy="25.5" r="2.3"/>
<circle class="st0" cx="48.6" cy="25.5" r="2.3"/>
</svg>
