<?xml version="1.0" encoding="utf-8"?>
<!-- Generator: Adobe Illustrator 21.0.0, SVG Export Plug-In . SVG Version: 6.00 Build 0)  -->
<svg version="1.1" id="Layer_1" xmlns="http://www.w3.org/2000/svg" xmlns:xlink="http://www.w3.org/1999/xlink" x="0px" y="0px"
	 viewBox="0 0 80 50" style="enable-background:new 0 0 80 50;" xml:space="preserve">
<style type="text/css">
	.st0{fill:#025B8E;}
</style>
<g>
	<path class="st0" d="M47.6,11.3c-0.1-0.1-0.3-0.1-0.4-0.2C47.1,11,47,10.9,47,10.8c-0.1-0.1-0.1-0.2-0.1-0.4c0-0.1,0-0.2,0.1-0.4
		c0-0.1,0.1-0.2,0.2-0.3c0.1-0.1,0.2-0.1,0.3-0.2c0.1,0,0.3-0.1,0.4-0.1c0.1,0,0.3,0,0.4,0.1c0.1,0.1,0.3,0.1,0.4,0.2
		c0.1,0.1,0.2,0.2,0.2,0.3c0.1,0.1,0.1,0.2,0.1,0.4c0,0.1,0,0.2-0.1,0.4c0,0.1-0.1,0.2-0.2,0.3c-0.1,0.1-0.2,0.1-0.3,0.2
		c-0.1,0-0.3,0.1-0.4,0.1C47.9,11.3,47.8,11.3,47.6,11.3 M51.2,3.3l-0.4-0.2h-0.1h-0.1h-0.1c0,0,0,0,0,0.1L49.7,5l-0.4-0.2l-1.2,3
		c-0.3,0-0.6,0-0.9,0c-0.3,0-0.6,0.1-0.8,0.3c-0.2,0.1-0.5,0.3-0.7,0.5S45.4,9,45.3,9.3v0.1L31.2,19l-0.8,2.2l15-10.1l0,0
		c0,0.1,0.1,0.2,0.2,0.3c0.1,0.1,0.1,0.2,0.2,0.3c0.1,0.1,0.2,0.2,0.3,0.3s0.2,0.2,0.3,0.3L45,15.4l0.8,0.3l0.8,0.3l1.3-3.2
		c0.1,0,0.3,0,0.4,0c0.1,0,0.3,0,0.4,0c0.1,0,0.3,0,0.4-0.1c0.1,0,0.2-0.1,0.4-0.1l0,0L53,30.1l1-2.1l-3.2-16.5l0.1-0.1
		c0.1-0.3,0.2-0.5,0.2-0.8s0-0.5-0.1-0.8s-0.2-0.5-0.4-0.7S50.2,8.7,50,8.5l1.2-3l-0.4-0.2l0.8-1.8V3.4V3.3
		C51.3,3.4,51.3,3.3,51.2,3.3L51.2,3.3"/>
</g>
<g>
	<g>
		<path class="st0" d="M35.6,45.8L20,4.5l24.9,0.2l18,27.4L35.6,45.8 M45.1,4.3L18.7,3.8L34.9,48L64,32.7L45.1,4.3"/>
		<polyline class="st0" points="44.2,6.6 25.1,6.8 26.5,10 26.7,10 25.4,7 44.1,6.7 49.5,15.2 49.6,15.2 49.7,15.3 49.6,15.4 
			58.7,29.7 49.9,33.5 50,33.6 49.8,33.6 49.8,33.5 42.8,36.5 42.8,36.6 42.6,36.7 42.6,36.6 38.8,38.2 37.9,36 37.7,36.1 
			37.6,35.8 37.7,35.8 36.8,33.7 36.7,33.7 36.6,33.5 36.7,33.4 35.9,31.4 35.7,31.4 35.7,31.2 35.8,31.2 34.9,29.2 34.8,29.2 
			34.7,29 34.8,29 34,27.1 33.9,27.1 33.8,26.9 33.9,26.9 30.1,17.9 30,18 29.9,17.8 30,17.8 28.3,13.6 28.2,13.7 28.1,13.7 
			38.7,38.5 59,29.9 44.2,6.6 		"/>
		<path class="st0" d="M30.9,9.8L26.7,10l0.1,0.1l4-0.2c0.2,0.4,0.3,0.8,0.2,1.2c0,0.4-0.2,0.8-0.4,1.1c-0.2,0.3-0.6,0.6-1,0.8
			s-0.9,0.4-1.5,0.4l0.1,0.2c0.6-0.1,1.2-0.2,1.6-0.5c0.4-0.2,0.8-0.5,1-0.9c0.2-0.3,0.4-0.7,0.4-1.1C31.2,10.7,31.2,10.3,30.9,9.8
			L30.9,9.8"/>
		<path class="st0" d="M25.2,10.2L25.2,10.2l1.4,3.4l0,0L25.2,10.2 M26.7,10h-0.2l-1.2,0.1l0.1,0.2l1.2-0.1l1.4,3.3l-1.2,0.1
			l0.1,0.2h-0.2l1.5-0.1h0.1h0.1l0,0l-0.1-0.2l-1.4-3.3L26.7,10"/>
		<path class="st0" d="M25.1,10.2L25.1,10.2l1.4,3.4l0,0l-1.3,0.1l-1.4-3.5L25.1,10.2 M25.3,10.1l-1.7,0.1l1.5,3.8l1.5-0.1h0.2
			l-0.1-0.2l-1.4-3.4V10.1"/>
		<path class="st0" d="M42.9,15.9l-4.5,0.6l1.9,3.6c-0.2,0-0.5,0-0.9,0s-1-0.1-1.5-0.3c-0.6-0.2-1.2-0.5-1.7-0.9
			c-0.6-0.4-1-1-1.4-1.7v-0.1L30,17.8h-0.1L30,18h0.1l4.5-0.6c0.4,0.8,1,1.5,1.6,1.9c0.6,0.5,1.3,0.7,2,0.9c0.6,0.2,1.2,0.2,1.6,0.3
			c0.4,0,0.7,0,0.7,0h0.1l-1.9-3.6l1.9-0.3v-0.1h0.2v0.1l2.1-0.3c0.5,0.8,1,1.4,1.6,1.8s1.2,0.7,1.7,0.8c0.5,0.1,1,0.2,1.3,0.2
			s0.5,0,0.5,0h0.1l-1.8-3l3.3-0.5h0.1l-0.1-0.1h-0.1L46.1,16l1.8,3c-0.1,0-0.4,0-0.7,0c-0.4,0-0.8-0.1-1.3-0.2
			c-0.5-0.2-1-0.4-1.5-0.8C43.9,17.3,43.4,16.7,42.9,15.9L42.9,15.9"/>
		<polyline class="st0" points="40.7,16.3 40.5,16.4 40.6,16.4 49.8,33.5 49.8,33.6 50,33.6 49.9,33.5 40.7,16.4 40.7,16.3 		"/>
		<polyline class="st0" points="37.1,24.5 36.9,24.5 37.6,25.9 37.7,25.9 37.8,26.1 37.7,26.1 38.5,27.9 38.6,27.9 38.7,28.1 
			38.6,28.1 39.5,30 39.6,29.9 39.7,30.1 39.6,30.2 40.5,32.1 40.6,32.1 40.7,32.3 40.6,32.3 41.5,34.3 41.6,34.3 41.7,34.5 
			41.6,34.6 42.6,36.6 42.6,36.7 42.8,36.6 42.8,36.5 37.1,24.5 		"/>
		<polyline class="st0" points="37.7,25.9 37.6,25.9 33.9,26.9 33.8,26.9 33.9,27.1 34,27.1 37.7,26.1 37.8,26.1 37.7,25.9 		"/>
		<polyline class="st0" points="38.6,27.9 38.5,27.9 34.8,29 34.7,29 34.8,29.2 34.9,29.2 38.6,28.1 38.7,28.1 38.6,27.9 		"/>
		<polyline class="st0" points="39.6,29.9 39.5,30 35.8,31.2 35.7,31.2 35.7,31.4 35.9,31.4 39.6,30.2 39.7,30.1 39.6,29.9 		"/>
		<polyline class="st0" points="40.6,32.1 40.5,32.1 36.7,33.4 36.6,33.5 36.7,33.7 36.8,33.7 40.6,32.3 40.7,32.3 40.6,32.1 		"/>
		<polyline class="st0" points="41.6,34.3 41.5,34.3 37.7,35.8 37.6,35.8 37.7,36.1 37.9,36 41.6,34.6 41.7,34.5 41.6,34.3 		"/>
		<path class="st0" d="M43.7,7.3L43.7,7.3h0.2v0.1l2.5,4l0.2,0.1v0.1l-0.2-0.1l-4.5,0.4L41.8,12h-0.2l0.1-0.1l-2.5-4.3L39,7.4
			l0.1-0.1l0.2,0.1L43.7,7.3 M43.9,7.2L39,7.3l2.7,4.7l5-0.4L43.9,7.2"/>
		<path class="st0" d="M42.7,9.5l-1.1,2.3V12l0.2,0.1l0.1-0.1L43,9.7L42.7,9.5 M43.8,7.2L43.8,7.2l-1,2.2l0.1,0.1l0.9-2.1V7.3V7.2"
			/>
		<polyline class="st0" points="39.1,7.3 39,7.4 39.2,7.5 42.7,9.5 42.9,9.6 46.4,11.5 46.5,11.6 46.6,11.5 46.4,11.4 42.9,9.5 
			42.8,9.4 39.3,7.4 39.1,7.3 		"/>
	</g>
</g>
</svg>
