<?xml version="1.0" encoding="utf-8"?>
<!-- Generator: Adobe Illustrator 21.0.0, SVG Export Plug-In . SVG Version: 6.00 Build 0)  -->
<svg version="1.1" id="Layer_1" xmlns="http://www.w3.org/2000/svg" xmlns:xlink="http://www.w3.org/1999/xlink" x="0px" y="0px"
	 viewBox="0 0 80 50" style="enable-background:new 0 0 80 50;" xml:space="preserve">
<style type="text/css">
	.st0{fill:#025B8E;}
</style>
<g>
	<path class="st0" d="M65.1,44.1L61.7,40c-0.2-0.3-0.6-0.5-1-0.5H41.8h-0.3H22.6c-0.4,0-0.7,0.2-1,0.5l-3.4,4.1
		c-1,1.1-0.1,2.9,1.4,2.9h22h0.3h22C65.3,47,66.1,45.3,65.1,44.1z M61.5,43.7H48.8c-0.2,0-0.4,0.2-0.4,0.4v1.2
		c0,0.2-0.2,0.4-0.4,0.4H35.4c-0.2,0-0.4-0.2-0.4-0.4V44c0-0.2-0.2-0.4-0.4-0.4H21.9c-0.3,0-0.5-0.3-0.3-0.6l1-1.5
		c0.1-0.1,0.3-0.2,0.4-0.2h37.3c0.2,0,0.3,0.1,0.4,0.2l1,1.5C62,43.3,61.8,43.7,61.5,43.7z"/>
	<path class="st0" d="M28.9,29.3c-2.4,3.5,0,8.2,0,8.2c1-2.7,5.5-3,6.8-4.4c1-1.1,1.5-3.3,1.6-4.4L35,26.5
		C34.3,26.4,31,26.3,28.9,29.3z"/>
	<path class="st0" d="M59.2,10.9h-2.7c-0.4,0.7-0.9,1.4-1.4,2.2h4.2c0.2,0,0.3,0.1,0.3,0.3v25.1c0,0.2-0.1,0.3-0.3,0.3H23.9
		c-0.2,0-0.3-0.1-0.3-0.3V13.4c0-0.2,0.1-0.3,0.3-0.3h19.3c0.8-0.8,1.6-1.5,2.3-2.2H23.9c-1.3,0-2.4,1.1-2.4,2.4v25.1
		c0,1.3,1.1,2.4,2.4,2.4h35.3c1.3,0,2.4-1.1,2.4-2.4v-25C61.6,12,60.5,10.9,59.2,10.9z"/>
	<path class="st0" d="M56.6,6c-0.8-0.2-8.6,4-14.8,11.4c-3.9,4.7-5.5,7.1-6.2,8.2l2.3,2.3c1.9-1.5,9.1-7.3,13.7-13.2
		C56.9,7.8,56.6,6,56.6,6z"/>
</g>
</svg>
