<?xml version="1.0" encoding="utf-8"?>
<!-- Generator: Adobe Illustrator 21.0.0, SVG Export Plug-In . SVG Version: 6.00 Build 0)  -->
<svg version="1.1" id="Layer_1" xmlns="http://www.w3.org/2000/svg" xmlns:xlink="http://www.w3.org/1999/xlink" x="0px" y="0px"
	 viewBox="0 0 80 50" style="enable-background:new 0 0 80 50;" xml:space="preserve">
<style type="text/css">
	.st0{fill:#025B8E;}
</style>
<path class="st0" d="M22.7,43.9c0,0,0,0.5,0,2.1c0,0.6,0.2,1,0.5,1.2h16c0.3-0.2,0.5-0.6,0.5-1.2c0-1.6,0-2.1,0-2.1s0.1-0.6-0.8-0.6
	v-0.2c0,0,0.7-0.4,0.7-1.6c0-1.2-0.6-1.9-1.2-2.6c-0.6-0.7-1.5-1.7-0.7-3.1l0.2-0.4v-0.3l-1.4-0.7c0,0-3.4-4.1-1.8-9.7h1.9
	c0,0,0.7,0.1,0.7-0.7v-0.8c0,0,0-0.8-1.2-0.8c0,0,0.3-0.2,0.3-0.6s-0.6-0.7-1.3-0.7v-0.4c0,0,0.3-0.1,0.3-0.4s-0.2-0.6-0.6-0.6
	l2.4-6.5c0,0,0.7-1.4-1.1-1.9s-2.4-0.5-2.4-0.5v-0.1c0,0,0.4-0.5-0.1-0.7C33,9.7,32.8,9.6,33,9.5s0.7-0.4,0.2-0.6
	c-0.4-0.3-0.8-0.7-0.8-0.7h1.4l0.3-0.3V5.3L33.9,5h-1.4c0,0,0.7-0.3,0.7-0.7V3.5c0-0.2-0.3-1-1.9-1c-1.7,0-1.9,0.8-1.9,1v0.8
	c0,0.3,0.7,0.7,0.7,0.7h-1.4l-0.3,0.3v2.6l0.3,0.3h1.4c0,0-0.4,0.4-0.8,0.7s0,0.5,0.2,0.6s0,0.2-0.6,0.4s-0.1,0.7-0.1,0.7v0.1
	c0,0-0.6,0-2.4,0.5s-1.1,1.9-1.1,1.9l2.4,6.5c-0.4,0-0.6,0.2-0.6,0.6s0.3,0.4,0.3,0.4V21c-0.7,0-1.3,0.3-1.3,0.7s0.3,0.6,0.3,0.6
	c-1.2,0-1.2,0.8-1.2,0.8V24c0,0.8,0.7,0.7,0.7,0.7h1.9c1.5,5.6-1.8,9.7-1.8,9.7l-1.4,0.7v0.3l0.2,0.4c0.8,1.4-0.1,2.4-0.7,3.1
	c-0.6,0.7-1.2,1.4-1.2,2.6c0,1.2,0.7,1.6,0.7,1.6v0.2C22.6,43.3,22.7,43.9,22.7,43.9z"/>
<path class="st0" d="M44.2,35.4c0.2,0.1,1.2,0.5,1.2,0.5s0.1,0.1-0.2,0.2c-0.3,0.1-1.1,0.3-1.1,0.7s0.4,0.6,0.7,0.8
	c0.4,0.2,1,1.1,0.2,1.9s-1.6,1.2-2,1.8s-0.7,1.1,0.2,2.4c0,0-0.5,0-0.5,0.5v2.7c0,0,0.1,0.2,0.2,0.4h15.8c0.2-0.2,0.4-0.4,0.4-0.7
	c0-0.9,0-2.4,0-2.4S59,44,58.6,43.9c0,0,0.5-0.4,0.5-1.1s0.1-1.3-1.7-2.6s-1-2-0.6-2.3s0.9-0.5,0.9-0.9s-0.4-0.5-0.8-0.7
	S56,36,56,36s0.1-0.2,1.2-0.5s1.6-0.6,1.7-0.7c0,0-3-4.1-4.7-6.3s-2.8-3.7-2.8-3.7l0.2-0.6h4.6L56,24.6v0.1h1.4l0.9-0.7v-0.2
	L58,23.5l0,0l0.3,0.3h0.2l0.6-0.6v-2c0,0-4.3-2.5-4.9-6.5c0,0-0.7-0.8-2.6-0.1c0,0-0.6,0.2-0.6-0.4c0-0.6,0.2-2.2,0.2-2.2
	s0-0.7-0.9-0.1S47,14.5,47,14.5v0.8h-0.2v-0.6c0,0-4.5,3.5-4.5,9.3s0.4,9,1.5,11.1C43.9,35.1,44.1,35.3,44.2,35.4z"/>
</svg>
