<?xml version="1.0" encoding="utf-8"?>
<!-- Generator: Adobe Illustrator 21.0.0, SVG Export Plug-In . SVG Version: 6.00 Build 0)  -->
<svg version="1.1" id="Layer_1" xmlns="http://www.w3.org/2000/svg" xmlns:xlink="http://www.w3.org/1999/xlink" x="0px" y="0px"
	 viewBox="0 0 80 50" style="enable-background:new 0 0 80 50;" xml:space="preserve">
<style type="text/css">
	.st0{fill:#025B8E;}
</style>
<g>
	<g>
		<polygon class="st0" points="32,9.6 34.2,9.6 34.2,7.5 32,7.5 32,5.5 29.9,5.5 29.9,7.5 29.9,41.2 32.1,41.2 34.2,41.2 34.2,39.2 
			32,39.2 		"/>
		<rect x="34.2" y="9.6" class="st0" width="2" height="2.2"/>
		<rect x="36.1" y="11.8" class="st0" width="2.2" height="2.2"/>
		<rect x="38.3" y="13.9" class="st0" width="2.2" height="2"/>
		<rect x="40.4" y="15.9" class="st0" width="2.2" height="2.2"/>
		<rect x="42.6" y="18.1" class="st0" width="2" height="2.2"/>
		<rect x="44.6" y="20.2" class="st0" width="2.2" height="2.2"/>
		<rect x="46.7" y="22.4" class="st0" width="2.2" height="2"/>
		<rect x="48.9" y="24.3" class="st0" width="2.2" height="2.2"/>
		<rect x="51" y="26.5" class="st0" width="2" height="2.2"/>
		<polygon class="st0" points="46.7,39.2 48.9,39.2 48.9,36.9 48.9,34.9 46.7,34.9 46.7,36.9 		"/>
		<polygon class="st0" points="48.9,43.3 51,43.3 51,41.1 51,39.2 48.9,39.2 48.9,41.1 		"/>
		<polygon class="st0" points="42.6,34.9 40.4,34.9 40.4,36.9 40.4,39.2 42.6,39.2 42.6,36.9 		"/>
		<rect x="38.3" y="32.8" class="st0" width="2.2" height="2.2"/>
		<rect x="36.1" y="34.9" class="st0" width="2.2" height="2.2"/>
		<rect x="34.2" y="37.1" class="st0" width="2" height="2.2"/>
		<polygon class="st0" points="44.6,39.2 42.6,39.2 42.6,41.1 42.6,43.3 44.6,43.3 44.6,41.1 		"/>
		<polygon class="st0" points="44.6,43.3 44.6,45.5 46.9,45.5 48.9,45.5 48.9,43.3 46.9,43.3 		"/>
		<polygon class="st0" points="53,28.6 53,30.8 44.6,30.8 44.6,32.7 44.6,34.9 46.7,34.9 46.7,32.8 53.2,32.8 55.1,32.8 55.1,28.6 
					"/>
	</g>
</g>
</svg>
