<?xml version="1.0" encoding="utf-8"?>
<!-- Generator: Adobe Illustrator 21.0.0, SVG Export Plug-In . SVG Version: 6.00 Build 0)  -->
<svg version="1.1" id="Layer_1" xmlns="http://www.w3.org/2000/svg" xmlns:xlink="http://www.w3.org/1999/xlink" x="0px" y="0px"
	 viewBox="0 0 80 50" style="enable-background:new 0 0 80 50;" xml:space="preserve">
<style type="text/css">
	.st0{fill:#025B8E;}
</style>
<path class="st0" d="M50.7,29.6h-0.1c2,2,4.8,3.3,7.8,3.3c3.1,0,5.8-1.3,7.8-3.3h-0.1c0,0,0,0,0-0.1l-7.1-15.1h1l0.6-0.9H52
	l-7.2-5.8V7.6c0-0.6-0.5-1-1-1h-1.1l0.9-2.1l-3-3.3l-2.8,3.3l0.7,2.1h-1.1c-0.6,0-1,0.5-1,1v0.1l-7.2,5.8h-8.6l0.6,0.9h1.1
	l-7.9,15.1c0,0,0,0,0,0.1h-0.1c2,2,4.8,3.3,7.8,3.3c3.1,0,5.8-1.3,7.8-3.3h-0.1c0,0,0,0,0-0.1l-7.1-15.1h13.8v10.1c0,0.6,0.5,1,1,1
	h1.3v9.2h-0.8c-0.6,0-1,0.5-1,1v2v1.2c0,2.4-1.9,4.4-4.4,4.4h-3.3v1.4h-2.8v1c3.6,1,8.7,1.6,14.5,1.6c5.4,0,10.4-0.6,13.9-1.4v-1.2
	h-2.8v-1.4h-3.3c-2.4,0-4.4-1.9-4.4-4.4v-1.2v-1.9c0-0.6-0.5-1-1-1h-0.8v-9.2h1.3c0.6,0,1-0.5,1-1V14.4h13.9L50.7,29.6
	C50.7,29.5,50.7,29.5,50.7,29.6z M18.2,29.6h-3.6L22,15.5L18.2,29.6C18.2,29.5,18.2,29.6,18.2,29.6z M29.5,29.6h-11l4-14.8
	L29.5,29.6z M65.8,29.6h-4.9c0,0,0,0,0,0L59,15.2L65.8,29.6z M58.7,14.8l2,14.7H51L58.7,14.8z"/>
</svg>
