<?xml version="1.0" encoding="utf-8"?>
<!-- Generator: Adobe Illustrator 21.0.0, SVG Export Plug-In . SVG Version: 6.00 Build 0)  -->
<svg version="1.1" id="Layer_1" xmlns="http://www.w3.org/2000/svg" xmlns:xlink="http://www.w3.org/1999/xlink" x="0px" y="0px"
	 viewBox="0 0 80 50" style="enable-background:new 0 0 80 50;" xml:space="preserve">
<style type="text/css">
	.st0{fill:#025B8E;}
</style>
<g>
	<path class="st0" d="M54.2,42.8l6.3-8.7c0,0-3.1-5-11.3-5s-7.1,3.8-15.5,3.8c0,0-6.5-0.5-8.7,0.3c-2.3,0.8-1.6,4.1,3.1,4.2
		s11.6,0.1,11.6,0.1s0.8,0.4,0,0.9H28.2c0,0-2.4,0.1-3.9-1.3s-1.7-3.5,0.3-4.3c0,0-3-2.9-3.8-3.6c-0.8-0.7-3.9-2-4.5-1.1
		c-0.6,1,5.2,7.1,5.2,7.1S26,39.9,32,43.4s3,1.2,11.3-0.3C51.6,41.5,51.1,41.6,54.2,42.8z"/>
	<path class="st0" d="M25,32.6l1.5-0.1c0,0-5.5-5.6-7.5-6.5c-2-0.9-2.4,0.2-2.1,1.3c0,0,1.7-0.2,3.5,1C22.3,29.5,25,32.6,25,32.6z"
		/>
	<path class="st0" d="M26.7,32.3l1.1-0.1c0,0-5.1-4.8-5.8-5.5c-0.7-0.7-1.5-1-2-0.6C20,26.2,26.1,31.4,26.7,32.3z"/>
	<path class="st0" d="M28.2,32.6h1c0,0-5-5.3-6.2-5.7c0,0-0.4,0-0.4,0.2L28.2,32.6z"/>
	<path class="st0" d="M53.8,43.9l7.2-9.7c0,0,1.1-1.3,2.8,0c0,0-3,8.2-7.7,13L53.8,43.9z"/>
	<path class="st0" d="M35.6,32.1c-0.2,0-0.5-0.1-0.6-0.3c0,0-10.4-10.4-12.4-12.4c-1.2-1.2-3.8-4.3-3.7-8.1c0.1-2.5,1.4-4.8,3.8-6.8
		c1.8-1.6,3.8-2.4,5.8-2.4c3.4,0,6,2.2,7.1,3.5c1.2-1.2,3.8-3.5,7.1-3.5c2,0,3.9,0.8,5.8,2.4c2.4,2,3.7,4.3,3.8,6.8
		c0.1,3.8-2.5,6.9-3.7,8.1c-1.9,1.9-12.3,12.4-12.3,12.4C36.1,32,35.9,32.1,35.6,32.1z M28.5,4c-1.6,0-3.1,0.6-4.6,1.9
		c-2,1.7-3.1,3.6-3.1,5.5c-0.1,3.1,2.2,5.7,3.2,6.7c1.7,1.7,9.4,9.4,11.7,11.7c2.3-2.3,10.1-10.1,11.7-11.7c1-1,3.3-3.6,3.2-6.7
		c-0.1-2-1.1-3.8-3.1-5.5c-1.5-1.3-3-1.9-4.6-1.9c-3.7,0-6.4,3.5-6.4,3.6c-0.2,0.2-0.4,0.3-0.7,0.3h0c-0.3,0-0.5-0.1-0.7-0.3
		C34.9,7.6,32.1,4,28.5,4z"/>
</g>
</svg>
