<?xml version="1.0" encoding="utf-8"?>
<!-- Generator: Adobe Illustrator 21.0.0, SVG Export Plug-In . SVG Version: 6.00 Build 0)  -->
<svg version="1.1" id="Capa_1" xmlns="http://www.w3.org/2000/svg" xmlns:xlink="http://www.w3.org/1999/xlink" x="0px" y="0px"
	 viewBox="0 0 480 480" style="enable-background:new 0 0 480 480;" xml:space="preserve">
<style type="text/css">
	.st0{fill:#FFFFFF;}
</style>
<g>
	<g>
		<path class="st0" d="M240,10c-72.8,0-132,58.9-132.2,131.7c0.3,14.1,2.6,28.2,6.9,41.6c6.4,14.3,13.7,28.2,22,41.5
			c19.3,33.7,48.5,84.6,48.5,103.5c0,5.2,4.2,9.4,9.4,9.4h90.4c5.2,0,9.4-4.2,9.4-9.4c0-18.9,29.2-69.9,48.5-103.5
			c8.3-13.3,15.7-27.2,22-41.5c4.3-13.5,6.7-27.5,6.9-41.6C372,68.9,312.8,10,240,10z M347.3,177.3c-6.1,13.1-13,25.8-20.5,38.1
			c-24.3,42.5-45,79.9-49.9,103.5h-73.7c-4.9-23.6-25.6-61-49.9-103.5c-7.6-12.3-14.4-25-20.6-38.1c-3.6-11.5-5.7-23.5-6-35.6
			c0-62.6,50.7-113.3,113.3-113.3s113.3,50.7,113.3,113.3C353,153.8,351,165.8,347.3,177.3z"/>
	</g>
</g>
<g>
	<g>
		<path class="st0" d="M286,447.1c-2.6-4.5-8.4-6.1-12.9-3.5l-12.9,7.4h-40.3l-12.9-7.4c-4.5-2.6-10.3-1.1-12.9,3.5
			c-2.6,4.5-1.1,10.3,3.5,12.9l15.1,8.7c1.4,0.8,3.1,1.3,4.7,1.3h45.3c1.7,0,3.3-0.4,4.7-1.3l15.1-8.7
			C287,457.4,288.6,451.7,286,447.1z"/>
	</g>
</g>
<g>
	<g>
		<path class="st0" d="M287.2,357.6c-0.5-5.2-5.2-9-10.3-8.5l0,0l-75.5,7.6c-5.2,0.5-9,5.1-8.5,10.3c0.5,4.8,4.5,8.5,9.4,8.5
			c0.3,0,0.6,0,0.9,0l75.5-7.6C283.9,367.5,287.7,362.8,287.2,357.6z"/>
	</g>
</g>
<g>
	<g>
		<path class="st0" d="M287.2,386c-0.5-5.2-5.2-9-10.3-8.5l0,0l-75.5,7.6c-5.2,0.5-9,5.1-8.5,10.3c0.5,4.8,4.5,8.5,9.4,8.5
			c0.3,0,0.6,0,0.9,0l75.5-7.6C283.9,395.8,287.7,391.2,287.2,386z"/>
	</g>
</g>
<g>
	<g>
		<path class="st0" d="M287.2,414.3c-0.5-5.2-5.2-9-10.3-8.5l0,0l-75.5,7.6c-5.2,0.5-9,5.1-8.5,10.3c0.5,4.8,4.5,8.5,9.4,8.5
			c0.3,0,0.6,0,0.9,0l75.5-7.6C283.9,424.1,287.7,419.5,287.2,414.3z"/>
	</g>
</g>
<g>
	<g>
		<path class="st0" d="M299.4,158.9c-1.9-0.6-3.9-0.6-5.8,0.1L240,176.8l-53.7-17.9c-4.9-1.6-10.3,1-11.9,6
			c-0.6,1.9-0.6,3.9-0.1,5.8l37.8,122.7c1.5,5,6.8,7.8,11.8,6.3c5-1.5,7.8-6.8,6.3-11.8l-32.4-105.2l39.2,13.1c1.9,0.7,4,0.7,6,0
			l39.2-13.1l-32.4,105.2c-1.5,5,1.3,10.3,6.3,11.8c5,1.5,10.3-1.3,11.8-6.3l37.8-122.7C307.2,165.7,304.4,160.4,299.4,158.9z"/>
	</g>
</g>
</svg>
