<?xml version="1.0" encoding="utf-8"?>
<!-- Generator: Adobe Illustrator 21.0.0, SVG Export Plug-In . SVG Version: 6.00 Build 0)  -->
<svg version="1.1" id="Layer_1" xmlns="http://www.w3.org/2000/svg" xmlns:xlink="http://www.w3.org/1999/xlink" x="0px" y="0px"
	 viewBox="0 0 110 110" style="enable-background:new 0 0 110 110;" xml:space="preserve">
<style type="text/css">
	.st0{fill:#F2C218;}
	.st1{fill:#FFFFFF;}
</style>
<path d="M-57,196.8c-0.2-7.2-2.6-13.9-6.7-19.3c-0.4-0.5-0.8-1-1.2-1.5c-6-7.2-14.9-11.9-24.9-12.2c0,0,0,0,0,0c0,0,0,0,0,0
	c-0.4,0-0.8,0-1.2,0h0c-0.4,0-0.8,0-1.2,0c0,0,0,0,0,0c0,0,0,0,0,0c-10,0.4-18.9,5-24.9,12.2c-0.4,0.5-0.8,1-1.2,1.5
	c-4,5.4-6.5,12.1-6.7,19.3c0,0.3,0,0.6,0,0.9v0c0,0.3,0,0.6,0,0.9c0.2,7.2,2.6,13.9,6.7,19.3c0.4,0.5,0.8,1,1.2,1.5
	c6,7.2,14.9,11.9,24.9,12.2c0,0,0,0,0,0c0,0,0,0,0,0c0.4,0,0.8,0,1.2,0h0c0.4,0,0.8,0,1.2,0c0,0,0,0,0,0c0,0,0,0,0,0
	c10-0.4,18.9-5,24.9-12.2c0.4-0.5,0.8-1,1.2-1.5c4-5.4,6.5-12.1,6.7-19.3c0-0.3,0-0.6,0-0.9v0C-57,197.4-57,197.1-57,196.8z
	 M-58.9,196.8H-78c-0.1-4.6-0.7-9-1.8-13.2c5.1-1.1,10-2.8,14.5-5.2C-61.4,183.6-59.1,189.9-58.9,196.8z M-81.7,211.5
	c-3-0.5-6.1-0.8-9.3-0.8h0c-3.2,0-6.3,0.3-9.3,0.8c-1.1-4.1-1.7-8.4-1.8-12.8h22.2C-79.9,203.1-80.6,207.4-81.7,211.5z M-91.3,229.9
	c-3.7-4.9-6.7-10.5-8.5-16.5c2.9-0.5,5.8-0.7,8.8-0.7c3,0,5.9,0.3,8.8,0.7c-1.9,6-4.8,11.6-8.5,16.5c-0.1,0-0.2,0-0.3,0
	C-91.1,229.9-91.2,229.9-91.3,229.9z M-102.1,196.8c0.1-4.4,0.7-8.7,1.8-12.8c3,0.5,6.1,0.8,9.3,0.8h0c3.2,0,6.3-0.3,9.3-0.8
	c1.1,4.1,1.7,8.4,1.8,12.8H-102.1z M-90.7,165.6c3.7,4.9,6.7,10.5,8.5,16.5c-2.9,0.5-5.8,0.7-8.8,0.7c-3,0-5.9-0.3-8.8-0.7
	c1.9-6,4.8-11.6,8.5-16.5c0.1,0,0.2,0,0.3,0C-90.9,165.6-90.8,165.6-90.7,165.6z M-66.5,176.9c-4.3,2.2-8.9,3.9-13.8,4.9
	c-1.8-5.8-4.5-11.3-7.9-16.1C-79.6,166.5-71.9,170.7-66.5,176.9z M-93.7,165.7c-3.5,4.8-6.2,10.3-7.9,16.1c-4.9-1-9.5-2.7-13.8-4.9
	C-110.1,170.7-102.4,166.5-93.7,165.7z M-116.6,178.4c4.5,2.4,9.4,4.2,14.5,5.2c-1.1,4.2-1.7,8.6-1.8,13.2h-19.1
	C-122.9,189.9-120.5,183.6-116.6,178.4z M-123.1,198.7h19.1c0.1,4.6,0.7,9,1.8,13.2c-5.1,1.1-10,2.8-14.5,5.2
	C-120.5,211.9-122.9,205.6-123.1,198.7z M-115.4,218.6c4.3-2.2,8.9-3.9,13.8-4.9c1.8,5.8,4.5,11.3,7.9,16.1
	C-102.4,229-110.1,224.8-115.4,218.6z M-88.3,229.8c3.5-4.8,6.2-10.3,7.9-16.1c4.9,1,9.5,2.7,13.8,4.9
	C-71.9,224.8-79.6,229-88.3,229.8z M-65.3,217.1c-4.5-2.4-9.4-4.2-14.5-5.2c1.1-4.2,1.7-8.6,1.8-13.2h19.1
	C-59.1,205.6-61.4,211.9-65.3,217.1z"/>
<path class="st0" d="M101.8,242.7c0.1-8.8-3.4-16.6-4.6-19.1c-0.8-1.7-1.5-3.1-3-3.8c-2.1-1.1-4.5-0.8-5.5-0.6
	c-1.2-1.2-2.5-1.9-3.9-1.8c-0.5,0-1.1,0.1-1.6,0.3c-0.9,0.4-1.6,0.9-2.1,1.4c-1.2-1-2.5-1.4-3.8-1.3c-0.4,0-0.7,0.1-1.1,0.3
	c-1.1,0.4-2,1.3-2.5,1.9c-0.7-1.1-5.2-10.6-7.7-15.8c-0.8-1.7-2.8-2.4-4.5-1.7l0,0c-1.8,0.7-2.7,2.8-2,4.6
	c4.6,11.6,8.8,23.1,9.5,24.9c-0.9,1-2.6,2.4-3,4c-0.9,3.5,0.8,5.3,2.4,6.5c3.3,2.5,8.7,6.7,11.8,9.2c0.7,0.6,1.7,0.7,2.5,0.4
	l17.2-6.9C101.1,244.7,101.8,243.8,101.8,242.7C101.8,242.7,101.8,242.7,101.8,242.7z"/>
<path class="st1" d="M98.1,195.2c-0.2-9.3-3.4-17.8-8.5-24.7c-0.5-0.7-1-1.3-1.5-1.9c-7.7-9.2-19.1-15.2-31.9-15.7c0,0,0,0,0-0.1
	c0,0,0,0,0,0.1c-0.5,0-1,0-1.5,0h0c-0.5,0-1,0-1.5,0c0,0,0,0,0-0.1c0,0,0,0,0,0.1c-12.8,0.5-24.2,6.4-31.9,15.7
	c-0.5,0.6-1,1.3-1.5,1.9c-5.2,6.9-8.3,15.5-8.5,24.7c0,0.4,0,0.8,0,1.2v0c0,0.4,0,0.8,0,1.2c0.2,9.3,3.4,17.8,8.5,24.7
	c0.5,0.7,1,1.3,1.5,1.9c7.7,9.2,19.1,15.2,31.9,15.7c0,0,0,0,0,0.1c0,0,0,0,0-0.1c0.5,0,1,0,1.5,0h0c0.5,0,1,0,1.5,0c0,0,0,0,0,0.1
	c0,0,0,0,0-0.1c2-0.1,4-0.3,6-0.6c-0.1-0.8-0.1-1.6-0.1-2.4c-1.3,0.2-2.7,0.4-4.1,0.5c2.1-2.9,4-6,5.6-9.2c-0.3-0.9-0.7-2-1.2-3.1
	c-2.1,4.4-4.6,8.6-7.5,12.5c-0.1,0-0.2,0-0.4,0c-0.1,0-0.2,0-0.4,0c-4.8-6.3-8.5-13.5-10.9-21.2c2.9-0.5,5.8-0.8,8.8-0.9
	c-0.6-0.7-1.1-1.5-1.5-2.3c-2.7,0.2-5.4,0.4-8,0.9c-1.4-5.3-2.2-10.8-2.3-16.5h12.4c0.9-0.9,1.8-1.7,2.9-2.4H40.4
	c0.1-5.7,0.9-11.2,2.3-16.5c3.9,0.7,7.9,1,11.9,1h0c4.1,0,8.1-0.3,11.9-1c1.4,5.1,2.1,10.4,2.3,15.9c1.5,0.7,2.9,1.8,4,3h23
	c-0.2,6.3-1.8,12.3-4.5,17.6c0.9,0,1.7,0.1,2.5,0.3c2.7-5.4,4.2-11.5,4.4-17.9c0-0.4,0-0.8,0-1.2v0C98.2,196,98.1,195.6,98.1,195.2z
	 M21.7,171.7c5.8,3,12,5.3,18.6,6.7c-1.4,5.4-2.2,11.1-2.3,16.9H13.5C13.7,186.4,16.7,178.3,21.7,171.7z M13.5,197.6H38
	c0.1,5.8,0.9,11.5,2.3,16.9c-6.6,1.4-12.8,3.6-18.6,6.7C16.7,214.6,13.7,206.4,13.5,197.6z M41,216.8c2.3,7.5,5.7,14.4,10.2,20.6
	c-11.1-0.9-21-6.3-27.9-14.3C28.8,220.2,34.7,218.1,41,216.8z M41,176c-6.3-1.3-12.2-3.4-17.7-6.3c6.9-8,16.7-13.4,27.9-14.3
	C46.7,161.6,43.2,168.6,41,176z M54.6,177.4c-3.8,0-7.6-0.3-11.3-0.9c2.4-7.7,6.1-14.9,10.9-21.2c0.1,0,0.2,0,0.4,0
	c0.1,0,0.2,0,0.4,0c4.8,6.3,8.5,13.5,10.9,21.2C62.2,177.1,58.4,177.4,54.6,177.4z M58.1,155.4c11.1,0.9,21,6.3,27.9,14.3
	c-5.5,2.9-11.4,5-17.7,6.3C66,168.6,62.5,161.6,58.1,155.4z M71.2,195.2c-0.1-5.8-0.9-11.5-2.3-16.9c6.6-1.4,12.8-3.6,18.6-6.7
	c5,6.6,8,14.7,8.3,23.6H71.2z"/>
<path class="st0" d="M56,208.3c-0.3-0.8-0.5-1.8-0.5-2.7c0-4,3.3-7.3,7.3-7.3c1.1,0,2.1,0.3,3.1,0.7c1.6,0.7,3,1.9,3.8,3.6l2.1,4.3
	c0.2,0.4,0.4,0.8,0.6,1.2c0.2-0.8,0.3-1.6,0.3-2.5c0-5.4-4.4-9.8-9.8-9.8s-9.8,4.4-9.8,9.8c0,3.8,2.2,7.2,5.5,8.8
	c-0.7-1.9-1.5-3.9-2.3-5.8C56.1,208.5,56.1,208.4,56,208.3z"/>
<path class="st1" d="M244.2,165.3c5,0,9,4,9,9v56c0,5-4,9-9,9h-86c-5,0-9-4-9-9v-56c0-5,4-9,9-9H244.2 M244.2,162.3h-86
	c-6.6,0-12,5.4-12,12v56c0,6.6,5.4,12,12,12h86c6.6,0,12-5.4,12-12v-56C256.2,167.6,250.8,162.3,244.2,162.3L244.2,162.3z"/>
<path class="st0" d="M182.6,179.6c2.7,0,4.9,2.2,4.9,4.9v9.9c0,2.7-2.2,4.9-4.9,4.9h-16.9c-2.7,0-4.9-2.2-4.9-4.9v-9.9
	c0-2.7,2.2-4.9,4.9-4.9H182.6 M182.6,176.6h-16.9c-4.3,0-7.9,3.5-7.9,7.9v9.9c0,4.3,3.5,7.9,7.9,7.9h16.9c4.3,0,7.9-3.5,7.9-7.9
	v-9.9C190.4,180.1,186.9,176.6,182.6,176.6L182.6,176.6z"/>
<path class="st0" d="M187.4,187.3v7c0,2.7-2.2,4.9-4.9,4.9h-3.3v-7c0-2.7,2.2-4.9,4.9-4.9H187.4 M190.4,184.3h-6.3
	c-4.3,0-7.9,3.5-7.9,7.9v10h6.3c4.3,0,7.9-3.5,7.9-7.9V184.3L190.4,184.3z"/>
<rect x="178.2" y="191.1" class="st0" width="10.4" height="3"/>
<rect x="169" y="178.6" class="st0" width="3" height="22.1"/>
<rect x="158.9" y="184.2" class="st0" width="11.6" height="3"/>
<rect x="158.9" y="191.5" class="st0" width="11.6" height="3"/>
<path class="st1" d="M175.9,219.3h-17c-1.4,0-2.5-1.1-2.5-2.5s1.1-2.5,2.5-2.5h17c1.4,0,2.5,1.1,2.5,2.5S177.3,219.3,175.9,219.3z"
	/>
<path class="st1" d="M161.4,228.5h-2.4c-1.4,0-2.5-1.1-2.5-2.5s1.1-2.5,2.5-2.5h2.4c1.4,0,2.5,1.1,2.5,2.5S162.7,228.5,161.4,228.5z
	"/>
<path class="st1" d="M174.5,228.5h-4.4c-1.4,0-2.5-1.1-2.5-2.5s1.1-2.5,2.5-2.5h4.4c1.4,0,2.5,1.1,2.5,2.5S175.9,228.5,174.5,228.5z
	"/>
<path class="st1" d="M199.8,219.3h-17c-1.4,0-2.5-1.1-2.5-2.5s1.1-2.5,2.5-2.5h17c1.4,0,2.5,1.1,2.5,2.5S201.2,219.3,199.8,219.3z"
	/>
<path class="st1" d="M234.5,211.1c5.2,0,9.4,4.2,9.4,9.4s-4.2,9.4-9.4,9.4s-9.4-4.2-9.4-9.4C225.1,215.3,229.3,211.1,234.5,211.1
	 M234.5,208.1L234.5,208.1c-6.9,0-12.4,5.6-12.4,12.4v0c0,6.9,5.6,12.4,12.4,12.4l0,0c6.9,0,12.4-5.6,12.4-12.4v0
	C247,213.6,241.4,208.1,234.5,208.1L234.5,208.1z"/>
<path class="st1" d="M221.9,211.1c5.2,0,9.4,4.2,9.4,9.4s-4.2,9.4-9.4,9.4s-9.4-4.2-9.4-9.4C212.5,215.3,216.7,211.1,221.9,211.1
	 M221.9,208.1L221.9,208.1c-6.9,0-12.4,5.6-12.4,12.4v0c0,6.9,5.6,12.4,12.4,12.4h0c6.9,0,12.4-5.6,12.4-12.4v0
	C234.3,213.6,228.8,208.1,221.9,208.1L221.9,208.1z"/>
<path class="st1" d="M44.6,281.5C20.5,281.5,1,301,1,325c0,24,19.5,43.5,43.5,43.5s43.5-19.5,43.5-43.5
	C88.1,301,68.6,281.5,44.6,281.5z M44.5,295.7c2-5.4,8-8.1,13.4-6.1s8.1,8,6.1,13.4c-2,5.4-8,8.1-13.4,6.1
	C45.2,307.1,42.5,301.1,44.5,295.7z M20.6,295.8c4.4-3.6,11-3,14.6,1.4c3.6,4.4,3,11-1.4,14.6c-4.4,3.6-11,3-14.6-1.4
	S16.2,299.5,20.6,295.8z M7.3,331.2c-0.9-5.7,2.9-11,8.5-11.9c5.7-0.9,11,2.9,11.9,8.5c0.9,5.7-2.9,11-8.5,11.9
	C13.6,340.7,8.3,336.9,7.3,331.2z M44.7,354.3c-2,5.4-8,8.1-13.4,6.1c-5.4-2-8.1-8-6.1-13.4c2-5.4,8-8.1,13.4-6.1
	C44,343,46.7,348.9,44.7,354.3z M44.6,334.5c-5.3,0-9.5-4.3-9.5-9.5c0-5.3,4.3-9.5,9.5-9.5c5.3,0,9.5,4.3,9.5,9.5
	C54.1,330.3,49.8,334.5,44.6,334.5z M68.6,354.2c-4.4,3.6-11,3-14.6-1.4c-3.6-4.4-3-11,1.4-14.6c4.4-3.6,11-3,14.6,1.4
	C73.7,344,73,350.5,68.6,354.2z M73.3,330.8c-5.7,0.9-11-2.9-11.9-8.5s2.9-11,8.5-11.9c5.7-0.9,11,2.9,11.9,8.5
	C82.8,324.5,79,329.8,73.3,330.8z"/>
<circle class="st0" cx="44.6" cy="325" r="6.1"/>
<path class="st0" d="M108,326.2c0,0-13.8-1-15.2,9.6c-1.4,10.6,2.8,20.4-3.8,26.8c-5.8,5.7-11.9,1.6-12.7-3.8
	c-1.8,1.7-3.7,3.2-5.8,4.6c1.6,2.3,6.3,7.1,16.2,3.5c12.9-4.5,9.8-18.8,10.5-25.3s4.9-10.8,12-8.2L108,326.2z"/>
<path class="st0" d="M98.1,38.5h-0.4c-2.6,0-5-1.3-6.4-3.5C83.7,22.6,70,14.4,54.4,14.4S25.1,22.6,17.4,35c-1.4,2.2-3.8,3.5-6.4,3.5
	h0c-4.7,0-8.5,3.8-8.5,8.5v21.5c0,4.7,3.8,8.5,8.5,8.5h4.3h3.4c1.3,0,2.4-1.1,2.4-2.4V39.3c6.5-11.6,19-19.5,33.3-19.5
	c14.6,0,27.3,8.2,33.7,20.3v34.5c0,1.3,1.1,2.4,2.4,2.4h2.9h4.7c4.7,0,8.5-3.8,8.5-8.5V47C106.6,42.3,102.8,38.5,98.1,38.5z"/>
<path class="st1" d="M83.1,40.2c-5.9-9.6-16.6-16.1-28.7-16.1c-12.7,0-23.8,7-29.5,17.4v36.6c5.5,10,16,16.9,28.1,17.4
	c-1.4-1.6-2.3-3.5-2.9-5.5c-2.5,0-4.1,0.1-4,0.4C39,88.2,32.8,83.5,28.9,77V42.6c5.4-9,15-14.5,25.5-14.5c10,0,19.2,4.9,24.7,13.2
	v34.5c1.4-0.8,2.7-1.7,4-2.7V40.2z"/>
<path class="st0" d="M98.4,59.2c-4.7,12.1-14.3,21.2-25.9,23.9c-1.3-3.7-4.9-6.3-9-6.3c-3.8,0-7.1,2.2-8.6,5.4
	c-0.6,1.3-0.9,2.7-0.9,4.2c0,0.1,0,0.2,0,0.3c0.2,5.1,4.4,9.2,9.5,9.2c4.8,0,8.8-3.6,9.5-8.2c13.6-3,24.7-14,29.7-28.5H98.4z"/>
</svg>
