<?xml version="1.0" encoding="utf-8"?>
<!-- Generator: Adobe Illustrator 21.0.0, SVG Export Plug-In . SVG Version: 6.00 Build 0)  -->
<svg version="1.1" id="Layer_1" xmlns="http://www.w3.org/2000/svg" xmlns:xlink="http://www.w3.org/1999/xlink" x="0px" y="0px"
	 viewBox="0 0 110 110" style="enable-background:new 0 0 110 110;" xml:space="preserve">
<style type="text/css">
	.st0{fill:#F2C218;}
	.st1{fill:#FFFFFF;}
</style>
<path d="M-57,54.1c-0.2-7.2-2.6-13.9-6.7-19.3c-0.4-0.5-0.8-1-1.2-1.5c-6-7.2-14.9-11.9-24.9-12.2c0,0,0,0,0,0c0,0,0,0,0,0
	c-0.4,0-0.8,0-1.2,0h0c-0.4,0-0.8,0-1.2,0c0,0,0,0,0,0c0,0,0,0,0,0c-10,0.4-18.9,5-24.9,12.2c-0.4,0.5-0.8,1-1.2,1.5
	c-4,5.4-6.5,12.1-6.7,19.3c0,0.3,0,0.6,0,0.9v0c0,0.3,0,0.6,0,0.9c0.2,7.2,2.6,13.9,6.7,19.3c0.4,0.5,0.8,1,1.2,1.5
	c6,7.2,14.9,11.9,24.9,12.2c0,0,0,0,0,0c0,0,0,0,0,0c0.4,0,0.8,0,1.2,0h0c0.4,0,0.8,0,1.2,0c0,0,0,0,0,0c0,0,0,0,0,0
	c10-0.4,18.9-5,24.9-12.2c0.4-0.5,0.8-1,1.2-1.5c4-5.4,6.5-12.1,6.7-19.3c0-0.3,0-0.6,0-0.9v0C-57,54.7-57,54.4-57,54.1z
	 M-58.9,54.1H-78c-0.1-4.6-0.7-9-1.8-13.2c5.1-1.1,10-2.8,14.5-5.2C-61.4,40.8-59.1,47.2-58.9,54.1z M-81.7,68.8
	c-3-0.5-6.1-0.8-9.3-0.8h0c-3.2,0-6.3,0.3-9.3,0.8c-1.1-4.1-1.7-8.4-1.8-12.8h22.2C-79.9,60.4-80.6,64.7-81.7,68.8z M-91.3,87.1
	c-3.7-4.9-6.7-10.5-8.5-16.5c2.9-0.5,5.8-0.7,8.8-0.7c3,0,5.9,0.3,8.8,0.7c-1.9,6-4.8,11.6-8.5,16.5c-0.1,0-0.2,0-0.3,0
	C-91.1,87.1-91.2,87.1-91.3,87.1z M-102.1,54.1c0.1-4.4,0.7-8.7,1.8-12.8c3,0.5,6.1,0.8,9.3,0.8h0c3.2,0,6.3-0.3,9.3-0.8
	c1.1,4.1,1.7,8.4,1.8,12.8H-102.1z M-90.7,22.9c3.7,4.9,6.7,10.5,8.5,16.5c-2.9,0.5-5.8,0.7-8.8,0.7c-3,0-5.9-0.3-8.8-0.7
	c1.9-6,4.8-11.6,8.5-16.5c0.1,0,0.2,0,0.3,0C-90.9,22.9-90.8,22.9-90.7,22.9z M-66.5,34.2c-4.3,2.2-8.9,3.9-13.8,4.9
	c-1.8-5.8-4.5-11.3-7.9-16.1C-79.6,23.7-71.9,27.9-66.5,34.2z M-93.7,23c-3.5,4.8-6.2,10.3-7.9,16.1c-4.9-1-9.5-2.7-13.8-4.9
	C-110.1,27.9-102.4,23.7-93.7,23z M-116.6,35.7c4.5,2.4,9.4,4.2,14.5,5.2c-1.1,4.2-1.7,8.6-1.8,13.2h-19.1
	C-122.9,47.2-120.5,40.8-116.6,35.7z M-123.1,55.9h19.1c0.1,4.6,0.7,9,1.8,13.2c-5.1,1.1-10,2.8-14.5,5.2
	C-120.5,69.2-122.9,62.8-123.1,55.9z M-115.4,75.8c4.3-2.2,8.9-3.9,13.8-4.9c1.8,5.8,4.5,11.3,7.9,16.1
	C-102.4,86.3-110.1,82.1-115.4,75.8z M-88.3,87c3.5-4.8,6.2-10.3,7.9-16.1c4.9,1,9.5,2.7,13.8,4.9C-71.9,82.1-79.6,86.3-88.3,87z
	 M-65.3,74.3c-4.5-2.4-9.4-4.2-14.5-5.2c1.1-4.2,1.7-8.6,1.8-13.2h19.1C-59.1,62.8-61.4,69.2-65.3,74.3z"/>
<path class="st0" d="M101.8,100c0.1-8.8-3.4-16.6-4.6-19.1c-0.8-1.7-1.5-3.1-3-3.8c-2.1-1.1-4.5-0.8-5.5-0.6
	c-1.2-1.2-2.5-1.9-3.9-1.8c-0.5,0-1.1,0.1-1.6,0.3c-0.9,0.4-1.6,0.9-2.1,1.4c-1.2-1-2.5-1.4-3.8-1.3c-0.4,0-0.7,0.1-1.1,0.3
	c-1.1,0.4-2,1.3-2.5,1.9c-0.7-1.1-5.2-10.6-7.7-15.8c-0.8-1.7-2.8-2.4-4.5-1.7l0,0c-1.8,0.7-2.7,2.8-2,4.6
	c4.6,11.6,8.8,23.1,9.5,24.9c-0.9,1-2.6,2.4-3,4c-0.9,3.5,0.8,5.3,2.4,6.5c3.3,2.5,8.7,6.7,11.8,9.2c0.7,0.6,1.7,0.7,2.5,0.4
	l17.2-6.9C101.1,102,101.8,101,101.8,100C101.8,100,101.8,100,101.8,100z"/>
<path class="st1" d="M98.1,52.5c-0.2-9.3-3.4-17.8-8.5-24.7c-0.5-0.7-1-1.3-1.5-1.9C80.4,16.6,69,10.6,56.2,10.2c0,0,0,0,0-0.1
	c0,0,0,0,0,0.1c-0.5,0-1,0-1.5,0h0c-0.5,0-1,0-1.5,0c0,0,0,0,0-0.1c0,0,0,0,0,0.1c-12.8,0.5-24.2,6.4-31.9,15.7
	c-0.5,0.6-1,1.3-1.5,1.9c-5.2,6.9-8.3,15.5-8.5,24.7c0,0.4,0,0.8,0,1.2v0c0,0.4,0,0.8,0,1.2c0.2,9.3,3.4,17.8,8.5,24.7
	c0.5,0.7,1,1.3,1.5,1.9c7.7,9.2,19.1,15.2,31.9,15.7c0,0,0,0,0,0.1c0,0,0,0,0-0.1c0.5,0,1,0,1.5,0h0c0.5,0,1,0,1.5,0c0,0,0,0,0,0.1
	c0,0,0,0,0-0.1c2-0.1,4-0.3,6-0.6c-0.1-0.8-0.1-1.6-0.1-2.4c-1.3,0.2-2.7,0.4-4.1,0.5c2.1-2.9,4-6,5.6-9.2c-0.3-0.9-0.7-2-1.2-3.1
	c-2.1,4.4-4.6,8.6-7.5,12.5c-0.1,0-0.2,0-0.4,0c-0.1,0-0.2,0-0.4,0c-4.8-6.3-8.5-13.5-10.9-21.2c2.9-0.5,5.8-0.8,8.8-0.9
	c-0.6-0.7-1.1-1.5-1.5-2.3c-2.7,0.2-5.4,0.4-8,0.9c-1.4-5.3-2.2-10.8-2.3-16.5h12.4c0.9-0.9,1.8-1.7,2.9-2.4H40.4
	c0.1-5.7,0.9-11.2,2.3-16.5c3.9,0.7,7.9,1,11.9,1h0c4.1,0,8.1-0.3,11.9-1c1.4,5.1,2.1,10.4,2.3,15.9c1.5,0.7,2.9,1.8,4,3h23
	c-0.2,6.3-1.8,12.3-4.5,17.6c0.9,0,1.7,0.1,2.5,0.3c2.7-5.4,4.2-11.5,4.4-17.9c0-0.4,0-0.8,0-1.2v0C98.2,53.3,98.1,52.9,98.1,52.5z
	 M21.7,28.9c5.8,3,12,5.3,18.6,6.7C38.9,41,38.1,46.6,38,52.5H13.5C13.7,43.6,16.7,35.5,21.7,28.9z M13.5,54.8H38
	c0.1,5.8,0.9,11.5,2.3,16.9c-6.6,1.4-12.8,3.6-18.6,6.7C16.7,71.8,13.7,63.7,13.5,54.8z M41,74c2.3,7.5,5.7,14.4,10.2,20.6
	c-11.1-0.9-21-6.3-27.9-14.3C28.8,77.5,34.7,75.3,41,74z M41,33.3C34.7,32,28.8,29.9,23.3,27c6.9-8,16.7-13.4,27.9-14.3
	C46.7,18.9,43.2,25.8,41,33.3z M54.6,34.7c-3.8,0-7.6-0.3-11.3-0.9c2.4-7.7,6.1-14.9,10.9-21.2c0.1,0,0.2,0,0.4,0c0.1,0,0.2,0,0.4,0
	c4.8,6.3,8.5,13.5,10.9,21.2C62.2,34.3,58.4,34.7,54.6,34.7z M58.1,12.7c11.1,0.9,21,6.3,27.9,14.3c-5.5,2.9-11.4,5-17.7,6.3
	C66,25.8,62.5,18.9,58.1,12.7z M71.2,52.5c-0.1-5.8-0.9-11.5-2.3-16.9c6.6-1.4,12.8-3.6,18.6-6.7c5,6.6,8,14.7,8.3,23.6H71.2z"/>
<path class="st0" d="M56,65.6c-0.3-0.8-0.5-1.8-0.5-2.7c0-4,3.3-7.3,7.3-7.3c1.1,0,2.1,0.3,3.1,0.7c1.6,0.7,3,1.9,3.8,3.6l2.1,4.3
	c0.2,0.4,0.4,0.8,0.6,1.2c0.2-0.8,0.3-1.6,0.3-2.5c0-5.4-4.4-9.8-9.8-9.8s-9.8,4.4-9.8,9.8c0,3.8,2.2,7.2,5.5,8.8
	c-0.7-1.9-1.5-3.9-2.3-5.8C56.1,65.7,56.1,65.6,56,65.6z"/>
</svg>
