<?xml version="1.0" encoding="utf-8"?>
<!-- Generator: Adobe Illustrator 21.0.0, SVG Export Plug-In . SVG Version: 6.00 Build 0)  -->
<svg version="1.1" id="Layer_1" xmlns="http://www.w3.org/2000/svg" xmlns:xlink="http://www.w3.org/1999/xlink" x="0px" y="0px"
	 viewBox="0 0 110 110" style="enable-background:new 0 0 110 110;" xml:space="preserve">
<style type="text/css">
	.st0{fill:#FFFFFF;}
	.st1{fill:#F2C218;}
</style>
<path class="st0" d="M98,18c5,0,9,4,9,9v56c0,5-4,9-9,9H12c-5,0-9-4-9-9V27c0-5,4-9,9-9H98 M98,15H12C5.4,15,0,20.4,0,27v56
	c0,6.6,5.4,12,12,12h86c6.6,0,12-5.4,12-12V27C110,20.4,104.6,15,98,15L98,15z"/>
<path class="st1" d="M36.4,32.3c2.7,0,4.9,2.2,4.9,4.9v9.9c0,2.7-2.2,4.9-4.9,4.9H19.4c-2.7,0-4.9-2.2-4.9-4.9v-9.9
	c0-2.7,2.2-4.9,4.9-4.9H36.4 M36.4,29.3H19.4c-4.3,0-7.9,3.5-7.9,7.9v9.9c0,4.3,3.5,7.9,7.9,7.9h16.9c4.3,0,7.9-3.5,7.9-7.9v-9.9
	C44.3,32.8,40.7,29.3,36.4,29.3L36.4,29.3z"/>
<path class="st1" d="M41.3,40.1v7c0,2.7-2.2,4.9-4.9,4.9h-3.3v-7c0-2.7,2.2-4.9,4.9-4.9H41.3 M44.3,37.1h-6.3
	c-4.3,0-7.9,3.5-7.9,7.9v10h6.3c4.3,0,7.9-3.5,7.9-7.9V37.1L44.3,37.1z"/>
<rect x="32" y="43.8" class="st1" width="10.4" height="3"/>
<rect x="22.8" y="31.3" class="st1" width="3" height="22.1"/>
<rect x="12.8" y="37" class="st1" width="11.6" height="3"/>
<rect x="12.8" y="44.3" class="st1" width="11.6" height="3"/>
<path class="st0" d="M29.8,72h-17c-1.4,0-2.5-1.1-2.5-2.5s1.1-2.5,2.5-2.5h17c1.4,0,2.5,1.1,2.5,2.5S31.1,72,29.8,72z"/>
<path class="st0" d="M15.2,81.2h-2.4c-1.4,0-2.5-1.1-2.5-2.5s1.1-2.5,2.5-2.5h2.4c1.4,0,2.5,1.1,2.5,2.5S16.5,81.2,15.2,81.2z"/>
<path class="st0" d="M28.4,81.2H24c-1.4,0-2.5-1.1-2.5-2.5s1.1-2.5,2.5-2.5h4.4c1.4,0,2.5,1.1,2.5,2.5S29.7,81.2,28.4,81.2z"/>
<path class="st0" d="M53.6,72h-17c-1.4,0-2.5-1.1-2.5-2.5s1.1-2.5,2.5-2.5h17c1.4,0,2.5,1.1,2.5,2.5S55,72,53.6,72z"/>
<path class="st0" d="M88.4,63.8c5.2,0,9.4,4.2,9.4,9.4c0,5.2-4.2,9.4-9.4,9.4c-5.2,0-9.4-4.2-9.4-9.4C78.9,68,83.2,63.8,88.4,63.8
	 M88.4,60.8L88.4,60.8c-6.9,0-12.4,5.6-12.4,12.4v0c0,6.9,5.6,12.4,12.4,12.4h0c6.9,0,12.4-5.6,12.4-12.4v0
	C100.8,66.4,95.2,60.8,88.4,60.8L88.4,60.8z"/>
<path class="st0" d="M75.7,63.8c5.2,0,9.4,4.2,9.4,9.4c0,5.2-4.2,9.4-9.4,9.4c-5.2,0-9.4-4.2-9.4-9.4C66.3,68,70.5,63.8,75.7,63.8
	 M75.7,60.8L75.7,60.8c-6.9,0-12.4,5.6-12.4,12.4v0c0,6.9,5.6,12.4,12.4,12.4h0c6.9,0,12.4-5.6,12.4-12.4v0
	C88.1,66.4,82.6,60.8,75.7,60.8L75.7,60.8z"/>
</svg>
