<?xml version="1.0" encoding="utf-8"?>
<!-- Generator: Adobe Illustrator 21.0.0, SVG Export Plug-In . SVG Version: 6.00 Build 0)  -->
<svg version="1.1" id="Layer_1" xmlns="http://www.w3.org/2000/svg" xmlns:xlink="http://www.w3.org/1999/xlink" x="0px" y="0px"
	 viewBox="0 0 110 110" style="enable-background:new 0 0 110 110;" xml:space="preserve">
<style type="text/css">
	.st0{fill:#FFFFFF;}
	.st1{fill:#F2C218;}
</style>
<path class="st0" d="M44.6,10.5C20.5,10.5,1,30,1,54c0,24,19.5,43.5,43.5,43.5S88.1,78,88.1,54C88.1,30,68.6,10.5,44.6,10.5z
	 M44.5,24.7c2-5.4,8-8.1,13.4-6.1c5.4,2,8.1,8,6.1,13.4c-2,5.4-8,8.1-13.4,6.1C45.2,36.1,42.5,30.1,44.5,24.7z M20.6,24.8
	c4.4-3.6,11-3,14.6,1.4c3.6,4.4,3,11-1.4,14.6c-4.4,3.6-11,3-14.6-1.4S16.2,28.5,20.6,24.8z M7.3,60.2c-0.9-5.7,2.9-11,8.5-11.9
	c5.7-0.9,11,2.9,11.9,8.5s-2.9,11-8.5,11.9S8.3,65.9,7.3,60.2z M44.7,83.3c-2,5.4-8,8.1-13.4,6.1c-5.4-2-8.1-8-6.1-13.4
	c2-5.4,8-8.1,13.4-6.1C44,71.9,46.7,77.9,44.7,83.3z M44.6,63.5c-5.3,0-9.5-4.3-9.5-9.5c0-5.3,4.3-9.5,9.5-9.5
	c5.3,0,9.5,4.3,9.5,9.5C54.1,59.3,49.8,63.5,44.6,63.5z M68.6,83.2c-4.4,3.6-11,3-14.6-1.4c-3.6-4.4-3-11,1.4-14.6
	c4.4-3.6,11-3,14.6,1.4C73.7,73,73,79.5,68.6,83.2z M73.3,59.7c-5.7,0.9-11-2.9-11.9-8.5s2.9-11,8.5-11.9c5.7-0.9,11,2.9,11.9,8.5
	C82.8,53.5,79,58.8,73.3,59.7z"/>
<circle class="st1" cx="44.6" cy="54" r="6.1"/>
<path class="st1" d="M108,55.1c0,0-13.8-1-15.2,9.6c-1.4,10.6,2.8,20.4-3.8,26.8c-5.8,5.7-11.9,1.6-12.7-3.8
	c-1.8,1.7-3.7,3.2-5.8,4.6c1.6,2.3,6.3,7.1,16.2,3.5c12.9-4.5,9.8-18.8,10.5-25.3c0.7-6.5,4.9-10.8,12-8.2L108,55.1z"/>
</svg>
