<?xml version="1.0" encoding="utf-8"?>
<!-- Generator: Adobe Illustrator 21.0.0, SVG Export Plug-In . SVG Version: 6.00 Build 0)  -->
<svg version="1.1" id="Laag_1" xmlns="http://www.w3.org/2000/svg" xmlns:xlink="http://www.w3.org/1999/xlink" x="0px" y="0px"
	 viewBox="0 0 800 400" style="enable-background:new 0 0 800 400;" xml:space="preserve">
<style type="text/css">
	.st0{fill:#231F20;}
	.st1{fill:#F79410;}
	.st2{fill:#FF5F00;}
	.st3{fill:#EB001B;}
	.st4{fill:#F79E1B;}
</style>
<title>Tekengebied 1</title>
<path class="st0" d="M624.1,376.5v0.9h0.9c0.2,0,0.3,0,0.5-0.1c0.1-0.1,0.2-0.2,0.2-0.4c0-0.1-0.1-0.3-0.2-0.3
	c-0.1-0.1-0.3-0.1-0.5-0.1L624.1,376.5L624.1,376.5z M624.9,375.9c0.4,0,0.7,0.1,1,0.3c0.2,0.2,0.4,0.5,0.4,0.8
	c0,0.3-0.1,0.5-0.3,0.7c-0.2,0.2-0.5,0.3-0.8,0.3l1.2,1.3h-0.9l-1.1-1.3h-0.3v1.3h-0.8v-3.5L624.9,375.9L624.9,375.9z M624.7,380.6
	c0.4,0,0.8-0.1,1.1-0.2c0.3-0.1,0.7-0.4,0.9-0.6c0.3-0.3,0.5-0.6,0.6-0.9c0.3-0.7,0.3-1.6,0-2.3c-0.2-0.3-0.4-0.7-0.6-0.9
	c-0.3-0.3-0.6-0.5-0.9-0.6c-0.4-0.1-0.8-0.2-1.1-0.2c-0.4,0-0.8,0.1-1.2,0.2c-0.4,0.1-0.7,0.4-1,0.6c-0.8,0.9-1.1,2.1-0.6,3.3
	c0.1,0.3,0.4,0.7,0.6,0.9c0.3,0.3,0.6,0.5,1,0.6C623.9,380.6,624.3,380.7,624.7,380.6 M624.7,373.9c1,0,2,0.4,2.7,1.1
	c0.4,0.3,0.6,0.8,0.8,1.2c0.4,0.9,0.4,2,0,2.9c-0.2,0.5-0.5,0.9-0.8,1.2c-0.4,0.3-0.8,0.6-1.2,0.8c-0.5,0.2-1,0.3-1.5,0.3
	c-0.5,0-1-0.1-1.5-0.3c-0.5-0.2-0.9-0.5-1.2-0.8c-0.3-0.4-0.6-0.8-0.8-1.2c-0.4-0.9-0.4-2,0-2.9c0.2-0.5,0.5-0.9,0.8-1.2
	c0.4-0.4,0.8-0.6,1.2-0.8C623.7,373.9,624.2,373.8,624.7,373.9 M267.7,360.3c0-6.7,4.4-12.3,11.6-12.3c6.9,0,11.5,5.3,11.5,12.3
	s-4.6,12.3-11.5,12.3C272.1,372.5,267.7,367,267.7,360.3 M298.7,360.3v-19.1h-8.3v4.7c-2.6-3.4-6.6-5.6-12.1-5.6
	c-10.7,0-19.1,8.4-19.1,20.1s8.4,20.1,19.1,20.1c5.4,0,9.4-2.2,12.1-5.6v4.6h8.3L298.7,360.3L298.7,360.3z M579.8,360.3
	c0-6.7,4.4-12.3,11.6-12.3c6.9,0,11.5,5.3,11.5,12.3s-4.6,12.3-11.5,12.3C584.3,372.5,579.8,367,579.8,360.3 M610.8,360.3v-34.5
	h-8.3v20c-2.6-3.4-6.6-5.6-12.1-5.6c-10.7,0-19.1,8.4-19.1,20.1s8.4,20.1,19.1,20.1c5.4,0,9.4-2.2,12.1-5.6v4.6h8.3V360.3z
	 M402,347.6c5.4,0,8.8,3.4,9.7,9.3h-19.9C392.7,351.4,396,347.6,402,347.6 M402.1,340.2c-11.2,0-19.1,8.2-19.1,20.1
	c0,12.2,8.2,20.1,19.6,20.1c5.8,0,11-1.4,15.7-5.4l-4.1-6.2c-3.2,2.6-7.3,4-11.1,4c-5.4,0-10.2-2.5-11.4-9.4h28.4
	c0.1-1,0.2-2.1,0.2-3.2C420.2,348.3,412.8,340.2,402.1,340.2 M502.6,360.2c0-6.7,4.4-12.3,11.6-12.3c6.9,0,11.5,5.3,11.5,12.3
	s-4.6,12.3-11.5,12.3C507,372.5,502.6,367,502.6,360.2 M533.6,360.2v-19.1h-8.3v4.7c-2.6-3.4-6.6-5.6-12.1-5.6
	c-10.7,0-19.1,8.4-19.1,20.1s8.4,20.1,19.1,20.1c5.4,0,9.4-2.2,12.1-5.6v4.6h8.3L533.6,360.2L533.6,360.2z M455.6,360.2
	c0,11.6,8.1,20.1,20.4,20.1c5.8,0,9.6-1.3,13.8-4.6l-4-6.7c-3.1,2.2-6.4,3.4-10,3.4c-6.6-0.1-11.5-4.9-11.5-12.3s4.9-12.2,11.5-12.3
	c3.6,0,6.9,1.2,10,3.4l4-6.7c-4.2-3.3-8-4.6-13.8-4.6C463.7,340.2,455.6,348.6,455.6,360.2 M562.9,340.2c-4.8,0-7.9,2.2-10.1,5.6
	v-4.6h-8.2v38.3h8.3v-21.5c0-6.3,2.7-9.9,8.2-9.9c1.8,0,3.5,0.3,5.2,1l2.6-7.8C567,340.5,564.6,340.2,562.9,340.2 M339.8,344.2
	c-4-2.6-9.5-4-15.6-4c-9.7,0-15.9,4.6-15.9,12.2c0,6.2,4.6,10.1,13.2,11.3l3.9,0.6c4.6,0.6,6.7,1.8,6.7,4c0,3-3,4.6-8.7,4.6
	c-5.8,0-9.9-1.8-12.7-4l-3.9,6.5c4.6,3.4,10.3,5,16.6,5c11.1,0,17.5-5.2,17.5-12.5c0-6.7-5-10.2-13.4-11.4l-3.9-0.6
	c-3.6-0.5-6.5-1.2-6.5-3.8c0-2.8,2.7-4.5,7.3-4.5c4.9,0,9.6,1.8,11.9,3.3L339.8,344.2L339.8,344.2z M447.2,340.2
	c-4.8,0-7.9,2.2-10.1,5.6v-4.7h-8.2v38.3h8.3v-21.5c0-6.3,2.7-9.9,8.2-9.9c1.8,0,3.5,0.3,5.2,1l2.6-7.8
	C451.3,340.5,448.9,340.2,447.2,340.2 M376.2,341.1h-13.6v-11.6h-8.4v11.6h-7.8v7.6h7.8v17.5c0,8.9,3.4,14.2,13.3,14.2
	c3.6,0,7.8-1.1,10.4-3l-2.4-7.1c-2.5,1.4-5.2,2.2-7.4,2.2c-4.2,0-5.5-2.6-5.5-6.4v-17.3h13.6V341.1z M251.8,379.4v-24
	c0-9-5.8-15.1-15.1-15.2c-4.9-0.1-9.9,1.4-13.5,6.8c-2.6-4.2-6.8-6.8-12.6-6.8c-4.1,0-8.1,1.2-11.2,5.7v-4.7h-8.3v38.3h8.4v-21.2
	c0-6.6,3.7-10.2,9.4-10.2c5.5,0,8.3,3.6,8.3,10.1v21.3h8.4v-21.2c0-6.6,3.8-10.2,9.4-10.2c5.7,0,8.4,3.6,8.4,10.1v21.3L251.8,379.4z
	"/>
<path class="st1" d="M628.8,252.1v-5.6h-1.5l-1.7,3.8l-1.7-3.8h-1.5v5.6h1v-4.2l1.6,3.6h1.1l1.6-3.6v4.2H628.8L628.8,252.1z
	 M619.6,252.1v-4.6h1.9v-0.9h-4.8v0.9h1.9v4.6L619.6,252.1L619.6,252.1z"/>
<path class="st2" d="M463.2,276.1H337.1V49.5h126.1L463.2,276.1z"/>
<path class="st3" d="M345.1,162.8c0-46,21.5-86.9,55-113.3c-25.4-20-56.8-30.9-89.1-30.8c-79.6,0-144.1,64.5-144.1,144.1
	s64.5,144.1,144.1,144.1c32.3,0,63.7-10.8,89.1-30.8C366.6,249.7,345.1,208.8,345.1,162.8"/>
<path class="st4" d="M633.3,162.8c0,79.6-64.5,144.1-144.1,144.1c-32.3,0-63.7-10.8-89.1-30.8c33.5-26.4,55.1-67.3,55.1-113.3
	s-21.5-86.9-55.1-113.3c25.4-20,56.8-30.9,89.1-30.8C568.8,18.7,633.3,83.2,633.3,162.8"/>
</svg>
