<?xml version="1.0" encoding="utf-8"?>
<!-- Generator: Adobe Illustrator 21.0.0, SVG Export Plug-In . SVG Version: 6.00 Build 0)  -->
<svg version="1.1" id="Capa_1" xmlns="http://www.w3.org/2000/svg" xmlns:xlink="http://www.w3.org/1999/xlink" x="0px" y="0px"
	 viewBox="0 0 467.5 467.5" style="enable-background:new 0 0 467.5 467.5;" xml:space="preserve">
<style type="text/css">
	.st0{fill:#FFFFFF;}
</style>
<g>
	<g>
		<path class="st0" d="M425.1,404.2L355.7,284c27.1-29.5,43.4-68.6,43.4-111.7c0-45.8-18.6-86.9-48.5-116.7s-71-48.5-116.7-48.5
			S147,25.7,117.2,55.6s-48.5,71-48.5,116.7c0,43,16.3,82.2,43.4,111.7L42.7,404.2c-1.2,1.9-1.6,4.7-0.8,7.4
			c1.6,4.3,6.2,6.2,10.5,4.7l55.5-22.1l8.5,59.3c0.4,2.3,1.6,4.7,3.9,5.8c3.9,2.3,8.9,0.8,11.2-3.1l70.2-121.4
			c10.1,1.9,20.9,3.1,31.4,3.1c10.9,0,21.3-1.2,31.4-3.1l70.2,121.4c2.3,3.9,7.4,5,11.2,3.1c2.3-1.2,3.5-3.5,3.9-5.8l8.5-59.3
			l55.5,22.1c4.3,1.6,8.9-0.4,10.5-4.7C426.6,408.9,426.2,406.2,425.1,404.2z M130,427.5l-7-46.1c-0.8-4.3-4.7-7.4-9.3-7
			c-0.8,0-1.6,0.4-2.3,0.8l-43,17.1l55.8-96.6c17.5,15.5,38.4,27.5,61.7,34.5L130,427.5z M233.9,321.2c-41.1,0-78.3-16.7-105.1-43.4
			c-26.8-26.8-43.4-64-43.4-105.1S102,94.4,128.8,67.6c26.8-27.5,64-44.2,105.1-44.2S312.2,40.1,339,66.9s43.4,64,43.4,105.1
			S365.7,250.3,339,277C312.2,304.6,275,321.2,233.9,321.2z M356.4,375.2c-0.8-0.4-1.6-0.8-2.3-0.8c-4.3-0.8-8.5,2.3-9.3,7l-7,46.1
			L282,330.2c23.3-7,44.2-19,61.7-34.5l55.8,96.6L356.4,375.2z"/>
	</g>
</g>
<g>
	<g>
		<path class="st0" d="M309.9,143.6c-1.9-2.7-4.3-4.7-7-5.8s-5.8-1.9-8.9-1.6h-32.2l-10.1-31.8c-1.6-4.7-5-8.5-8.9-10.9
			c-2.7-1.2-5.4-1.9-8.5-1.9s-5.8,0.8-8.5,1.9c-4.3,2.3-7.4,5.8-8.9,10.9l-10.1,31.8h-32.2c-3.1-0.4-6.2,0.4-8.9,1.6
			c-2.7,1.2-5,3.1-7,5.8c-3.1,4.3-3.9,8.9-3.1,13.6c0.8,4.7,3.1,8.9,7.4,12l27.1,19.4l-10.5,31.8c0,0.4,0,0.8-0.4,0.8
			c-0.8,2.3-0.8,5-0.4,7.8c0.4,2.7,1.6,5.4,3.5,7.8c3.1,4.3,7.4,6.6,12,7.4c4.7,0.8,9.7-0.4,13.6-3.5l27.1-19.8l27.1,19.8
			c4.3,3.1,8.9,3.9,13.6,3.5c4.7-0.8,8.9-3.1,12-7.4c1.9-2.3,2.7-5,3.5-7.8c0.4-2.7,0.4-5-0.4-7.8c0-0.4,0-0.8-0.4-0.8L280,188.6
			l27.1-19.4c4.3-3.1,6.6-7.4,7.4-12C314.2,152.9,313,147.9,309.9,143.6z M296.3,156l-0.4,0.4l-31.4,22.9c-2.7,1.9-4.3,5.8-3.1,8.9
			l12,36.8v0.4c0,0.4,0,0.8,0,1.2s0,0.8-0.4,0.8c-0.4,0.4-0.8,0.8-1.6,0.8c-0.4,0-1.2,0-1.6-0.4l-31.8-23.3c-1.6-1.2-3.1-1.6-5-1.6
			c-1.6,0-3.5,0.4-5,1.6l-31.8,23.3c-0.4,0.4-1.2,0.4-1.6,0.4c-0.4,0-1.2-0.4-1.6-0.8c-0.4-0.4-0.4-0.8-0.4-0.8c0-0.4,0-0.8,0-1.2
			v-0.4l12-36.8c1.2-3.5,0-7-3.1-8.9l-29.9-22.9l-0.4-0.4c-0.4-0.4-0.8-0.8-0.8-1.2c0-0.4,0-1.2,0.4-1.6c0,0,0-0.4,0.4-0.4
			c0.4-0.4,0.4-0.4,0.8-0.4c0.4,0,0.8-0.4,1.2-0.4c0.4,0,0.8,0,1.2,0h38c3.5,0,6.6-2.3,7.8-5.8l12-37.2c0-0.4,0.4-1.2,1.2-1.2
			c0.4,0,0.8-0.4,0.8-0.4c0.4,0,0.8,0,0.8,0.4c0.4,0.4,0.8,0.8,1.2,1.2l12,37.2c1.2,3.1,4.3,5.8,7.8,5.8h38c0.4,0,0.8,0,1.2,0
			c0.4,0,0.8,0,1.2,0.4c0.4,0,0.4,0.4,0.8,0.4c0,0,0,0.4,0.4,0.4c0.4,0.4,0.4,0.8,0.4,1.6C297.1,155.3,296.7,155.7,296.3,156z"/>
	</g>
</g>
<g>
	<g>
		<path class="st0" d="M325,81.2c-23.3-23.3-55.5-37.6-91.1-37.6S166,57.9,142.8,81.2s-37.6,55.5-37.6,91.1s14.3,67.9,37.6,91.1
			s55.5,37.6,91.1,37.6s67.9-14.3,91.1-37.6c23.3-23.3,37.6-55.5,37.6-91.1C362.6,136.7,348.3,104.5,325,81.2z M313.8,251.8
			c-20.6,20.6-48.9,33-79.9,33s-59.3-12.8-79.5-33c-20.6-20.6-33-48.5-33-79.5s12.8-59.3,33-79.5c20.2-20.6,48.5-33.4,79.5-33.4
			s59.3,12.8,79.5,33c20.6,20.6,33,48.5,33,79.5S333.9,231.7,313.8,251.8z"/>
	</g>
</g>
</svg>
