<?xml version="1.0" encoding="utf-8"?>
<!-- Generator: Adobe Illustrator 21.0.0, SVG Export Plug-In . SVG Version: 6.00 Build 0)  -->
<svg version="1.1" id="Layer_1" xmlns="http://www.w3.org/2000/svg" xmlns:xlink="http://www.w3.org/1999/xlink" x="0px" y="0px"
	 viewBox="0 0 800 400" style="enable-background:new 0 0 800 400;" xml:space="preserve">
<style type="text/css">
	.st0{clip-path:url(#SVGID_2_);}
	.st1{fill:#003087;}
	.st2{fill:#009CDE;}
	.st3{fill:#012169;}
</style>
<g transform="matrix(2.07675 0 0 -2.07675 -11.153 92.77)">
	<g>
		<defs>
			<rect id="SVGID_1_" x="-606.6" y="-313.5" width="1612" height="523.6"/>
		</defs>
		<clipPath id="SVGID_2_">
			<use xlink:href="#SVGID_1_"  style="overflow:visible;"/>
		</clipPath>
		<g class="st0">
			<path class="st1" d="M89.7-14.8c-4,4.5-11.2,6.5-20.4,6.5H42.6c-1.9,0-3.5-1.4-3.8-3.2L27.7-82.2c-0.2-1.3,0.7-2.4,1.9-2.6
				c0.1,0,0.2,0,0.4,0h16.5l4.1,26.3l-0.1-0.8c0.3,1.9,1.9,3.2,3.8,3.2h7.8c15.4,0,27.5,6.3,31,24.4c0.1,0.5,0.2,1.1,0.3,1.6
				C94.4-23.5,93.3-18.9,89.7-14.8"/>
			<path class="st2" d="M291.9-48.4c-1-6.6-6.1-6.6-11-6.6h-2.8l2,12.4c0.1,0.7,0.8,1.3,1.5,1.3h1.3c3.3,0,6.5,0,8.1-1.9
				C291.9-44.4,292.2-46.1,291.9-48.4 M289.7-31.1h-18.5c-1.3,0-2.3-0.9-2.5-2.2l-7.5-47.3c-0.1-0.8,0.4-1.6,1.3-1.8
				c0.1,0,0.2,0,0.2,0h9.5c0.9,0,1.6,0.6,1.8,1.5l2.1,13.4c0.2,1.2,1.3,2.2,2.5,2.2h5.8c12.2,0,19.2,5.9,21,17.6
				c0.8,5.1,0,9.1-2.4,11.9C300.6-32.7,295.9-31.1,289.7-31.1"/>
			<path class="st1" d="M160.2-48.4c-1-6.6-6.1-6.6-11-6.6h-2.8l2,12.4c0.1,0.7,0.8,1.3,1.5,1.3h1.3c3.3,0,6.5,0,8.1-1.9
				C160.2-44.4,160.5-46.1,160.2-48.4 M158-31.1h-18.5c-1.3,0-2.3-0.9-2.5-2.2l-7.5-47.3c-0.1-0.8,0.4-1.6,1.3-1.8
				c0.1,0,0.2,0,0.2,0h8.8c1.3,0,2.3,0.9,2.5,2.2l2,12.8c0.2,1.2,1.3,2.2,2.5,2.2h5.8c12.2,0,19.2,5.9,21,17.6
				c0.8,5.1,0,9.1-2.4,11.9C168.9-32.7,164.2-31.1,158-31.1 M200.9-65.4c-0.9-5.1-4.9-8.4-10-8.4c-2.6,0-4.6,0.8-5.9,2.4
				c-1.3,1.5-1.8,3.8-1.4,6.2c0.8,5,4.9,8.5,9.9,8.5c2.5,0,4.5-0.8,5.9-2.4C200.8-60.7,201.3-62.9,200.9-65.4 M213.2-48.2h-8.8
				c-0.8,0-1.4-0.6-1.5-1.3l-0.4-2.5l-0.6,0.9c-1.9,2.8-6.2,3.7-10.4,3.7c-9.8,0-18.1-7.4-19.7-17.8c-0.8-5.2,0.4-10.1,3.3-13.6
				c2.7-3.2,6.5-4.5,11.1-4.5c7.9,0,12.2,5.1,12.2,5.1l-0.4-2.5c-0.1-0.8,0.4-1.6,1.3-1.8c0.1,0,0.2,0,0.2,0h8
				c1.3,0,2.3,0.9,2.5,2.2l4.8,30.3c0.1,0.8-0.4,1.6-1.3,1.8C213.4-48.2,213.3-48.2,213.2-48.2"/>
			<path class="st2" d="M332.6-65.4c-0.9-5.1-4.9-8.4-10-8.4c-2.6,0-4.6,0.8-5.9,2.4c-1.3,1.5-1.8,3.8-1.4,6.2
				c0.8,5,4.9,8.5,9.9,8.5c2.5,0,4.5-0.8,5.9-2.4C332.5-60.7,333-62.9,332.6-65.4 M344.9-48.2h-8.8c-0.8,0-1.4-0.6-1.5-1.3l-0.4-2.5
				l-0.6,0.9c-1.9,2.8-6.2,3.7-10.4,3.7c-9.8,0-18.1-7.4-19.7-17.8c-0.8-5.2,0.4-10.1,3.3-13.6c2.7-3.2,6.5-4.5,11.1-4.5
				c7.9,0,12.2,5.1,12.2,5.1l-0.4-2.5c-0.1-0.8,0.4-1.6,1.3-1.8c0.1,0,0.2,0,0.2,0h8c1.3,0,2.3,0.9,2.5,2.2l4.8,30.3
				c0.1,0.8-0.4,1.6-1.3,1.8C345.1-48.2,345-48.2,344.9-48.2"/>
			<path class="st1" d="M260.3-48.2h-8.9c-0.8,0-1.6-0.4-2.1-1.1l-12.3-18.1L231.9-50c-0.3,1.1-1.3,1.8-2.5,1.8h-8.7
				c-0.9,0-1.5-0.7-1.5-1.5c0-0.2,0-0.3,0.1-0.5l9.8-28.7l-9.2-13c-0.5-0.7-0.3-1.7,0.4-2.1c0.3-0.2,0.6-0.3,0.9-0.3h8.9
				c0.8,0,1.6,0.4,2.1,1.1l29.6,42.7c0.5,0.7,0.3,1.7-0.4,2.1C260.9-48.3,260.6-48.2,260.3-48.2"/>
			<path class="st2" d="M355.3-32.4l-7.6-48.2c-0.1-0.8,0.4-1.6,1.3-1.8c0.1,0,0.2,0,0.2,0h7.6c1.3,0,2.3,0.9,2.5,2.2l7.5,47.3
				c0.1,0.8-0.4,1.6-1.3,1.8c-0.1,0-0.2,0-0.2,0h-8.5C356.1-31.1,355.5-31.6,355.3-32.4"/>
			<path class="st1" d="M89.7-14.8c-4,4.5-11.2,6.5-20.4,6.5H42.6c-1.9,0-3.5-1.4-3.8-3.2L27.7-82.2c-0.2-1.3,0.7-2.4,1.9-2.6
				c0.1,0,0.2,0,0.4,0h16.5l4.1,26.3l-0.1-0.8c0.3,1.9,1.9,3.2,3.8,3.2h7.8c15.4,0,27.5,6.3,31,24.4c0.1,0.5,0.2,1.1,0.3,1.6
				C94.4-23.5,93.3-18.9,89.7-14.8"/>
			<path class="st1" d="M55-30.2c0.3,1.6,1.7,2.8,3.3,2.8h21c2.5,0,4.8-0.2,6.9-0.5c1.2-0.2,2.3-0.4,3.4-0.8
				c1.3-0.4,2.5-0.9,3.7-1.5c1.1,6.7,0,11.3-3.6,15.4c-4,4.5-11.2,6.5-20.4,6.5H42.6c-1.9,0-3.5-1.4-3.8-3.2L27.6-82.1
				c-0.2-1.3,0.7-2.4,1.9-2.6c0.1,0,0.2,0,0.4,0h16.5l4.1,26.3L55-30.2z"/>
			<path class="st2" d="M93.3-30.2c-0.1-0.5-0.2-1-0.3-1.6c-3.5-18.1-15.6-24.4-31-24.4h-7.8c-1.9,0-3.5-1.4-3.8-3.2l-4-25.5
				L45.3-92c-0.2-1.1,0.6-2.1,1.7-2.3c0.1,0,0.2,0,0.3,0h13.9c1.6,0,3,1.2,3.3,2.8l0.1,0.7l2.6,16.6l0.2,0.9
				c0.3,1.6,1.7,2.8,3.3,2.8h2.1c13.5,0,24,5.5,27.1,21.3c1.3,6.6,0.6,12.1-2.8,16C96.1-31.9,94.8-30.9,93.3-30.2"/>
			<path class="st3" d="M89.7-28.7c-0.5,0.2-1.1,0.3-1.7,0.4s-1.2,0.2-1.8,0.3c-2.1,0.3-4.4,0.5-6.9,0.5h-21c-1.6,0-3.1-1.2-3.3-2.8
				l-4.5-28.3l-0.1-0.8c0.3,1.9,1.9,3.2,3.8,3.2h7.8c15.4,0,27.5,6.3,31,24.4c0.1,0.5,0.2,1.1,0.3,1.6c-0.9,0.5-1.9,0.9-2.9,1.2
				C90.2-28.8,89.9-28.8,89.7-28.7"/>
		</g>
	</g>
</g>
</svg>
