<?xml version="1.0" encoding="utf-8"?>
<!-- Generator: Adobe Illustrator 21.0.0, SVG Export Plug-In . SVG Version: 6.00 Build 0)  -->
<svg version="1.1" id="Layer_1" xmlns="http://www.w3.org/2000/svg" xmlns:xlink="http://www.w3.org/1999/xlink" x="0px" y="0px"
	 viewBox="0 0 512 512" style="enable-background:new 0 0 512 512;" xml:space="preserve">
<style type="text/css">
	.st0{fill:#FFFFFF;}
</style>
<path class="st0" d="M256,128.8c-5.4,0-9.8,4.4-9.8,9.8c0,5.4,4.4,9.8,9.8,9.8s9.8-4.4,9.8-9.8C265.8,133.2,261.4,128.8,256,128.8z"
	/>
<path class="st0" d="M93.6,304.9c5.4,0,9.8-4.4,9.8-9.8s-4.4-9.8-9.8-9.8s-9.8,4.4-9.8,9.8S88.2,304.9,93.6,304.9z"/>
<path class="st0" d="M334.3,31c-88.1,0-160.4,60.7-165.9,137.2C84.4,172.4,5.6,232.9,5.6,314.7c0,34.2,13.5,67.3,38.2,93.6
	c4.9,20.1-1,41.4-15.7,56.1c-2.8,2.8-3.6,7-2.1,10.7c1.5,3.7,5.1,6,9,6c27.9,0,54.8-10.9,74.8-30.2c19.5,6.6,44.9,10.7,68.1,10.7
	c88.1,0,160.3-60.7,165.9-137.2c20.5-0.9,41.8-4.7,58.6-10.4c20,19.3,46.9,30.2,74.8,30.2c4,0,7.5-2.4,9-6c1.5-3.7,0.7-7.9-2.1-10.7
	c-14.7-14.7-20.6-36-15.7-56.1c24.6-26.2,38.2-59.4,38.2-93.6C506.4,92.7,421.5,31,334.3,31z M177.7,441.9c-23.1,0-49.4-4.5-67-11.5
	c-3.8-1.5-8.1-0.5-10.8,2.5c-11.8,12.9-27.2,21.9-43.9,26.1c9.2-17.7,11.6-38.5,6-58.2c-0.4-1.6-1.3-3-2.4-4.1
	c-22.2-22.9-34.4-51.9-34.4-81.8c0-68.9,69.9-127.2,152.6-127.2c78.1,0,146.7,54.3,146.7,127.2C324.5,384.8,258.7,441.9,177.7,441.9
	z M452.5,259.5c-1.1,1.2-1.9,2.6-2.4,4.1c-5.6,19.7-3.3,40.6,6,58.2c-16.7-4.1-32.1-13.1-43.9-26.1c-2.7-3-7.1-4-10.8-2.5
	c-15.3,6.1-37.1,10.3-57.6,11.3c-2.9-37-21.3-71.8-52.9-97.6h127.6c5.4,0,9.8-4.4,9.8-9.8s-4.4-9.8-9.8-9.8H260.7
	c-22.2-11.3-47.1-17.9-72.8-19.3c5.6-65.7,69.1-117.7,146.3-117.7c82.7,0,152.6,58.2,152.6,127.2
	C486.9,207.6,474.6,236.7,452.5,259.5z"/>
<path class="st0" d="M256,285.3H132.7c-5.4,0-9.8,4.4-9.8,9.8s4.4,9.8,9.8,9.8H256c5.4,0,9.8-4.4,9.8-9.8S261.4,285.3,256,285.3z"/>
<path class="st0" d="M256,344H93.6c-5.4,0-9.8,4.4-9.8,9.8c0,5.4,4.4,9.8,9.8,9.8H256c5.4,0,9.8-4.4,9.8-9.8
	C265.8,348.4,261.4,344,256,344z"/>
<path class="st0" d="M418.4,128.8H295.1c-5.4,0-9.8,4.4-9.8,9.8c0,5.4,4.4,9.8,9.8,9.8h123.3c5.4,0,9.8-4.4,9.8-9.8
	C428.2,133.2,423.8,128.8,418.4,128.8z"/>
</svg>
