<?xml version="1.0" encoding="utf-8"?>
<!-- Generator: Adobe Illustrator 21.0.0, SVG Export Plug-In . SVG Version: 6.00 Build 0)  -->
<svg version="1.1" id="Layer_1" xmlns="http://www.w3.org/2000/svg" xmlns:xlink="http://www.w3.org/1999/xlink" x="0px" y="0px"
	 viewBox="0 0 800 400" style="enable-background:new 0 0 800 400;" xml:space="preserve">
<style type="text/css">
	.st0{fill:#2566AF;}
	.st1{fill:#E6A540;}
	.st2{fill:none;}
</style>
<g>
	<path class="st0" d="M355.2,305.6h-54.9l34.3-211h54.9L355.2,305.6z M254.1,94.6l-52.4,145.1l-6.2-31.3l0,0L177,113.6
		c0,0-2.2-19-26.1-19H64.4l-1,3.6c0,0,26.5,5.5,57.5,24.1l47.7,183.3h57.2l87.4-211L254.1,94.6L254.1,94.6z M686.2,305.6h50.4
		l-44-211h-44.2c-20.4,0-25.4,15.7-25.4,15.7l-81.9,195.3h57.3l11.5-31.3h69.8L686.2,305.6L686.2,305.6z M625.7,230.9l28.9-79
		l16.2,79H625.7z M545.5,145.3l7.8-45.3c0,0-24.2-9.2-49.4-9.2c-27.3,0-92,11.9-92,69.9c0,54.5,76,55.2,76,83.8
		c0,28.6-68.2,23.5-90.6,5.4l-8.2,47.4c0,0,24.5,11.9,62,11.9c37.5,0,94-19.4,94-72.2c0-54.9-76.7-60-76.7-83.8
		C468.5,129.3,522,132.4,545.5,145.3L545.5,145.3z"/>
</g>
<path class="st1" d="M195.5,208.5L177,113.6c0,0-2.2-19-26.1-19H64.4l-1,3.6c0,0,41.6,8.6,81.5,40.9
	C183.1,170,195.5,208.5,195.5,208.5z"/>
<path class="st2" d="M0-200h800v800H0V-200z"/>
</svg>
